<?xml version="1.0" encoding="UTF-8"?>
<svg version="1.1" xmlns="http://www.w3.org/2000/svg" width="200" height="200">
<path d="M0 0 C0.88034912 -0.01409912 1.76069824 -0.02819824 2.66772461 -0.04272461 C10.49849062 0.01594116 17.39533348 1.64533348 23.125 7.375 C26.125 12.54741379 26.125 12.54741379 26.125 15.375 C27.115 15.436875 28.105 15.49875 29.125 15.5625 C36.59553381 16.67930707 41.50915211 21.25663327 45.8984375 27.1171875 C48.8739114 32.59433373 49.39968552 37.97830662 49.375 44.125 C49.38273437 46.06632812 49.38273437 46.06632812 49.390625 48.046875 C49.125 51.375 49.125 51.375 47.125 54.375 C45.866875 54.024375 44.60875 53.67375 43.3125 53.3125 C29.23164239 50.27631508 16.58484892 56.68987923 4.94775391 64.15820312 C-8.63550086 73.22583529 -21.32183274 83.44375363 -33.296875 94.53125 C-34.12167358 95.29465698 -34.12167358 95.29465698 -34.96313477 96.07348633 C-36.4656516 97.47233386 -37.95780916 98.88228498 -39.44921875 100.29296875 C-41.875 102.375 -41.875 102.375 -44.875 103.375 C-45.37 104.86 -45.37 104.86 -45.875 106.375 C-46.535 106.375 -47.195 106.375 -47.875 106.375 C-47.875 107.035 -47.875 107.695 -47.875 108.375 C-49.25805664 109.73901367 -49.25805664 109.73901367 -51.22265625 111.35546875 C-56.52484386 115.86530829 -61.40368869 120.75717454 -66.3125 125.6875 C-67.22193359 126.59306641 -68.13136719 127.49863281 -69.06835938 128.43164062 C-69.93138672 129.29595703 -70.79441406 130.16027344 -71.68359375 131.05078125 C-72.85619751 132.2250769 -72.85619751 132.2250769 -74.05249023 133.4230957 C-75.93029367 135.24930532 -75.93029367 135.24930532 -76.875 137.375 C-77.535 137.375 -78.195 137.375 -78.875 137.375 C-79.07738281 137.90609375 -79.27976562 138.4371875 -79.48828125 138.984375 C-81.47958007 142.41726198 -84.21982745 144.88370948 -87.0625 147.625 C-91.23762232 151.72335284 -95.28983649 155.83344597 -99.078125 160.296875 C-101.40428498 162.98712959 -103.83067228 165.58146777 -106.25 168.1875 C-109.8705537 172.09317075 -113.302591 176.08281465 -116.625 180.25 C-120.05557362 184.52121868 -123.57473955 187.98968858 -127.875 191.375 C-126.61611124 187.9376831 -125.18565855 185.15747955 -123.00390625 182.22265625 C-122.43518799 181.45324707 -121.86646973 180.68383789 -121.28051758 179.89111328 C-120.67232178 179.0814209 -120.06412598 178.27172852 -119.4375 177.4375 C-118.80932373 176.59429199 -118.18114746 175.75108398 -117.53393555 174.88232422 C-109.75918912 164.48509261 -101.79339615 154.29260982 -93.3137207 144.45947266 C-90.83141267 141.59917422 -90.83141267 141.59917422 -88.875 138.375 C-88.215 138.375 -87.555 138.375 -86.875 138.375 C-86.54048828 137.56289063 -86.54048828 137.56289063 -86.19921875 136.734375 C-84.45423014 133.62530975 -82.1220868 131.19620096 -79.6875 128.625 C-78.68020106 127.54630871 -77.67368879 126.46688228 -76.66796875 125.38671875 C-76.18247559 124.8664209 -75.69698242 124.34612305 -75.19677734 123.81005859 C-73.58345104 122.05846421 -72.03846545 120.25498186 -70.5 118.4375 C-65.30839648 112.4295264 -59.52402388 106.94757092 -53.875 101.375 C-54.88691406 101.53871094 -55.89882812 101.70242187 -56.94140625 101.87109375 C-60.62603364 102.34310659 -64.10268482 102.47574552 -67.8125 102.4375 C-68.95589844 102.42847656 -70.09929687 102.41945313 -71.27734375 102.41015625 C-72.56318359 102.39275391 -72.56318359 102.39275391 -73.875 102.375 C-69.4647154 97.63802765 -65.79001118 95.22347053 -59.3125 94.5625 C-49.54620389 93.08312263 -41.26876262 89.12862025 -35.14453125 81.24609375 C-31.93425914 76.51464655 -31.03675033 72.06461961 -31.875 66.375 C-33.29845947 61.91860133 -35.10229056 59.02751019 -38.6875 56 C-45.56258193 52.49505627 -51.58951358 52.05060111 -59.1875 52.125 C-60.16315918 52.12886719 -61.13881836 52.13273437 -62.14404297 52.13671875 C-67.99946935 52.20550496 -73.70025203 52.59661098 -79.5 53.375 C-99.39587911 55.9521034 -127.03484625 57.84367027 -144.875 46.375 C-146.125 44.25 -146.125 44.25 -146.875 42.375 C-146.25496094 42.55675781 -145.63492188 42.73851562 -144.99609375 42.92578125 C-141.96589049 43.78588261 -138.92539708 44.5893989 -135.875 45.375 C-134.76382813 45.66117188 -133.65265625 45.94734375 -132.5078125 46.2421875 C-113.94446746 50.50728866 -96.35010323 48.00382271 -77.78759766 44.86669922 C-44.79884045 39.29759972 -44.79884045 39.29759972 -31.875 47.375 C-25.88459555 51.82476882 -20.88930623 56.03717016 -18.875 63.375 C-18.875 64.695 -18.875 66.015 -18.875 67.375 C-18.16706299 66.88471313 -18.16706299 66.88471313 -17.44482422 66.38452148 C16.21602702 43.19221945 16.21602702 43.19221945 35.3125 43.25 C36.17230469 43.24742188 37.03210938 43.24484375 37.91796875 43.2421875 C40.125 43.375 40.125 43.375 42.125 44.375 C40.14181812 35.09010301 38.26227512 28.00419317 30.12890625 22.453125 C27.91636992 21.26275458 25.79149721 20.61333337 23.375 19.9375 C19.76220201 18.87383359 19.3451991 18.74706055 17.3125 15.3125 C16.7246875 13.8584375 16.7246875 13.8584375 16.125 12.375 C8.8053192 7.39830114 -3.16610625 9.08168634 -11.39453125 10.60546875 C-23.8969523 13.36975264 -35.75907924 17.35086577 -47.75 21.8125 C-78.92287153 33.38068357 -112.62753162 43.26769636 -145.875 34.375 C-145.875 33.715 -145.875 33.055 -145.875 32.375 C-145.28936279 32.3656543 -144.70372559 32.35630859 -144.1003418 32.34667969 C-110.57216574 31.68564287 -81.34048276 24.76762404 -50.41685486 12.5473175 C-33.82555584 6.00693156 -18.0201319 0.21104518 0 0 Z " fill="#FAC121" transform="translate(148.875,3.625)"/>
<path d="M0 0 C3.54323161 3.90977281 4.38145215 7.61267704 4.265625 12.8828125 C3.66361463 17.68118931 1.51948896 20.71982335 -2.05859375 23.734375 C-6.2456613 26.69992031 -9.74922801 28.73072964 -15 29 C-14.55527344 28.34773438 -14.11054687 27.69546875 -13.65234375 27.0234375 C-10.09981729 21.69511568 -10.09981729 21.69511568 -8.8125 15.5625 C-10.42235471 12.08860299 -11.41784007 11.43286397 -15 10 C-25.60110237 7.04860205 -36.84555857 7.61750476 -47.75 7.5 C-85.19562988 7.09352606 -85.19562988 7.09352606 -98 1 C-99.15698242 -1.07470703 -99.15698242 -1.07470703 -100 -3 C-98.63246582 -2.68276978 -98.63246582 -2.68276978 -97.23730469 -2.35913086 C-88.15366136 -0.37884082 -79.58257237 0.50830949 -70.25 0.4375 C-69.58222534 0.43678497 -68.91445068 0.43606995 -68.22644043 0.43533325 C-55.32875871 0.40182245 -42.64221437 -0.89278104 -29.87597656 -2.66430664 C-8.11620175 -5.6189089 -8.11620175 -5.6189089 0 0 Z " fill="#FAC223" transform="translate(107,64)"/>
<path d="M0 0 C-1.37418622 4.49733673 -3.31472397 6.19217064 -7 9 C-8.051875 10.3303125 -8.051875 10.3303125 -9.125 11.6875 C-11 14 -11 14 -14 15 C-14 11 -14 11 -12 8 C-12.33 8.33 -12.66 8.66 -13 9 C-16 11 -16 11 -18.1875 10.625 C-18.785625 10.41875 -19.38375 10.2125 -20 10 C-20.495 8.02 -20.495 8.02 -21 6 C-21.99 6 -22.98 6 -24 6 C-22.12050295 9.57104439 -20.82946843 11.54744301 -17 13 C-17.33 13.99 -17.66 14.98 -18 16 C-21.37462715 15.45276317 -23.08235 14.9451 -26 13 C-28.7793939 13.12683828 -28.7793939 13.12683828 -31.875 13.75 C-33.02097656 13.94851562 -34.16695312 14.14703125 -35.34765625 14.3515625 C-36.55292969 14.56554688 -37.75820312 14.77953125 -39 15 C-41.43655242 15.3811083 -43.8740204 15.75642368 -46.3125 16.125 C-47.40175781 16.29257812 -48.49101563 16.46015625 -49.61328125 16.6328125 C-50.40089844 16.75398438 -51.18851562 16.87515625 -52 17 C-52 16.01 -52 15.02 -52 14 C-43.09 11.525 -43.09 11.525 -34 9 C-34.99 8.34 -35.98 7.68 -37 7 C-37 6.34 -37 5.68 -37 5 C-30.37386193 -0.52178172 -21.08319702 0.96950381 -13.0625 1.5625 C-12.31645508 1.63049805 -11.57041016 1.69849609 -10.80175781 1.76855469 C-6.34941955 2.12790894 -3.89605616 0 0 0 Z " fill="#F7C634" transform="translate(165,20)"/>
<path d="M0 0 C0.62003906 0.18175781 1.24007813 0.36351562 1.87890625 0.55078125 C4.90910951 1.41088261 7.94960292 2.2143989 11 3 C12.11117188 3.28617188 13.22234375 3.57234375 14.3671875 3.8671875 C33.26989594 8.21026056 52.00895145 5.64467935 71 3 C71 3.66 71 4.32 71 5 C70.01 5 69.02 5 68 5 C68 5.66 68 6.32 68 7 C70.64 7.66 73.28 8.32 76 9 C76 9.33 76 9.66 76 10 C53.6206001 13.31546665 22.21835561 16.99751432 2 4 C0.75 1.875 0.75 1.875 0 0 Z " fill="#F9C630" transform="translate(2,46)"/>
<path d="M0 0 C0.433125 0.639375 0.86625 1.27875 1.3125 1.9375 C2.91239177 4.26746003 2.91239177 4.26746003 6 5 C5.58226318 5.4125 5.16452637 5.825 4.73413086 6.25 C1.39958338 9.54819736 -1.92634769 12.85486909 -5.23828125 16.17578125 C-5.86774658 16.80653564 -6.49721191 17.43729004 -7.14575195 18.0871582 C-9.61995684 20.63954732 -11.98064774 23.27611348 -14.2734375 25.9921875 C-16.57079434 28.66377442 -18.97785092 31.23092352 -21.375 33.8125 C-24.99559926 37.71812253 -28.4275958 41.70782067 -31.75 45.875 C-35.18057362 50.14621868 -38.69973955 53.61468858 -43 57 C-41.74111124 53.5626831 -40.31065855 50.78247955 -38.12890625 47.84765625 C-37.56018799 47.07824707 -36.99146973 46.30883789 -36.40551758 45.51611328 C-35.79732178 44.7064209 -35.18912598 43.89672852 -34.5625 43.0625 C-33.6202356 41.79768799 -33.6202356 41.79768799 -32.65893555 40.50732422 C-24.88418912 30.11009261 -16.91839615 19.91760982 -8.4387207 10.08447266 C-5.95641267 7.22417422 -5.95641267 7.22417422 -4 4 C-3.34 4 -2.68 4 -2 4 C-1.34 2.68 -0.68 1.36 0 0 Z " fill="#F8C42B" transform="translate(64,138)"/>
<path d="M0 0 C-2.31856917 1.54571278 -4.50638429 2.79618552 -7 4 C-5.03177114 5.96822886 -1.65191291 5.66248381 1 6 C1 6.33 1 6.66 1 7 C-5.09273785 7.75780321 -11.0491705 8.19323974 -17.1875 8.1875 C-18.00613525 8.18741943 -18.82477051 8.18733887 -19.66821289 8.18725586 C-28.23847134 8.10786292 -36.69744813 7.22068255 -45 5 C-45 4.34 -45 3.68 -45 3 C-44.35675781 2.98018066 -43.71351562 2.96036133 -43.05078125 2.93994141 C-31.33568064 2.56183277 -19.75076264 2.09569167 -8.14453125 0.40234375 C-5.38106769 0.04875773 -2.78027768 -0.07853892 0 0 Z " fill="#F8CA40" transform="translate(48,33)"/>
<path d="M0 0 C1.49739583 1.26953125 2.99479167 2.5390625 4.4921875 3.80859375 C6.00594079 5.0878152 6.00594079 5.0878152 8 6 C7.67 6.99 7.34 7.98 7 9 C3.62537285 8.45276317 1.91765 7.9451 -1 6 C-3.7793939 6.12683828 -3.7793939 6.12683828 -6.875 6.75 C-8.02097656 6.94851562 -9.16695312 7.14703125 -10.34765625 7.3515625 C-11.55292969 7.56554688 -12.75820312 7.77953125 -14 8 C-16.43655242 8.3811083 -18.8740204 8.75642368 -21.3125 9.125 C-22.94638672 9.37636719 -22.94638672 9.37636719 -24.61328125 9.6328125 C-25.40089844 9.75398438 -26.18851562 9.87515625 -27 10 C-27 9.01 -27 8.02 -27 7 C-24.0835095 6.18686324 -21.16681631 5.3744665 -18.25 4.5625 C-17.425 4.33240234 -16.6 4.10230469 -15.75 3.86523438 C-14.95078125 3.64287109 -14.1515625 3.42050781 -13.328125 3.19140625 C-12.5949707 2.98717041 -11.86181641 2.78293457 -11.10644531 2.57250977 C-9.07705853 2.0209437 -7.04204604 1.50244018 -5 1 C-5 1.66 -5 2.32 -5 3 C-3.68 3 -2.36 3 -1 3 C-0.67 2.01 -0.34 1.02 0 0 Z " fill="#F7C934" transform="translate(140,27)"/>
<path d="M0 0 C1.32946655 0.31287964 1.32946655 0.31287964 2.68579102 0.63208008 C12.50514738 2.78898089 21.90477531 3.5279589 31.9375 3.6875 C33.4108351 3.72079663 34.88414351 3.75529682 36.35742188 3.79101562 C39.90475051 3.87447229 43.45215399 3.94192275 47 4 C47 4.33 47 4.66 47 5 C41.36473035 6.20484722 35.85463885 6.1129643 30.125 6.0625 C29.15046875 6.05798828 28.1759375 6.05347656 27.171875 6.04882812 C24.78118566 6.03710906 22.3906256 6.02070219 20 6 C20 6.66 20 7.32 20 8 C13.89726444 7.51565591 7.46458538 6.99223597 2 4 C1.29103396 2.68866885 0.61928115 1.35599155 0 0 Z " fill="#F8D053" transform="translate(7,61)"/>
<path d="M0 0 C0.99 0 1.98 0 3 0 C1.38394045 3.92338156 -1.31296429 6.71437454 -4.1875 9.75 C-5.18180179 10.81434599 -6.17529063 11.87945201 -7.16796875 12.9453125 C-7.65185059 13.46383789 -8.13573242 13.98236328 -8.63427734 14.51660156 C-11.01804204 17.10576036 -13.29307164 19.78728989 -15.5625 22.4765625 C-17 24 -17 24 -20 26 C-18.67980307 22.33687848 -17.0719392 19.4688642 -14.7421875 16.35546875 C-14.11699219 15.51435547 -13.49179687 14.67324219 -12.84765625 13.80664062 C-12.19667969 12.94232422 -11.54570312 12.07800781 -10.875 11.1875 C-10.21628906 10.30384766 -9.55757812 9.42019531 -8.87890625 8.50976562 C-7.25748432 6.33612028 -5.63107746 4.16640381 -4 2 C-2.68 2.33 -1.36 2.66 0 3 C0 2.01 0 1.02 0 0 Z " fill="#FACD40" transform="translate(41,169)"/>
<path d="M0 0 C1.17949219 0.01804687 2.35898438 0.03609375 3.57421875 0.0546875 C4.92966797 0.08949219 4.92966797 0.08949219 6.3125 0.125 C6.3125 1.115 6.3125 2.105 6.3125 3.125 C5.3225 3.455 4.3325 3.785 3.3125 4.125 C2.10367904 6.12516466 2.10367904 6.12516466 1.3125 8.125 C-0.3375 8.125 -1.9875 8.125 -3.6875 8.125 C-3.3575 7.135 -3.0275 6.145 -2.6875 5.125 C-4.9975 4.795 -7.3075 4.465 -9.6875 4.125 C-9.6875 3.465 -9.6875 2.805 -9.6875 2.125 C-6.05554504 -0.29630331 -4.30400652 -0.08522785 0 0 Z " fill="#FAC123" transform="translate(137.6875,22.875)"/>
<path d="M0 0 C0.62003906 0.18175781 1.24007813 0.36351562 1.87890625 0.55078125 C9.84870159 2.81295023 17.86662006 4.4523528 26 6 C26 6.33 26 6.66 26 7 C24.39125 7.2165625 24.39125 7.2165625 22.75 7.4375 C19.26895867 7.84545686 19.26895867 7.84545686 17.109375 8.64453125 C14.16188518 9.14123787 12.27622681 8.30252555 9.5 7.25 C8.5615625 6.90453125 7.623125 6.5590625 6.65625 6.203125 C4.09061069 5.04104131 2.09526464 3.87783151 0 2 C0 1.34 0 0.68 0 0 Z " fill="#FAC335" transform="translate(2,46)"/>
<path d="M0 0 C0 0.66 0 1.32 0 2 C0.66 2.33 1.32 2.66 2 3 C-7.10109781 5.69820782 -17.70819129 3.83926014 -27 3 C-27 2.34 -27 1.68 -27 1 C-23.62511542 0.83094103 -20.25007637 0.66518231 -16.875 0.5 C-15.44800781 0.42845703 -15.44800781 0.42845703 -13.9921875 0.35546875 C-9.32313191 0.12850077 -4.67636296 -0.06298132 0 0 Z " fill="#FBBC14" transform="translate(54,66)"/>
<path d="M0 0 C-0.66 0 -1.32 0 -2 0 C-2 1.65 -2 3.3 -2 5 C-1.01 5 -0.02 5 1 5 C1 4.34 1 3.68 1 3 C3.97 3.33 6.94 3.66 10 4 C10 4.33 10 4.66 10 5 C9.11957031 5.26554687 8.23914063 5.53109375 7.33203125 5.8046875 C6.17058594 6.15789063 5.00914062 6.51109375 3.8125 6.875 C2.08966797 7.39707031 2.08966797 7.39707031 0.33203125 7.9296875 C-2.50871157 8.84218871 -5.24885465 9.84980364 -8 11 C-8 10.01 -8 9.02 -8 8 C-6.68 7.67 -5.36 7.34 -4 7 C-6.55991624 4.98863724 -9.04590299 3.37154504 -12 2 C-10.75579353 1.4654744 -9.50429064 0.94791389 -8.25 0.4375 C-7.55390625 0.14746094 -6.8578125 -0.14257812 -6.140625 -0.44140625 C-3.69987216 -1.07831803 -2.3596345 -0.80248831 0 0 Z " fill="#FBC734" transform="translate(171,51)"/>
<path d="M0 0 C2.45906037 0.47565766 4.91720993 0.95536052 7.375 1.4375 C8.07367188 1.57220703 8.77234375 1.70691406 9.4921875 1.84570312 C14.7734375 2.88671875 14.7734375 2.88671875 17 4 C17 4.66 17 5.32 17 6 C10.98321342 6.32105383 6.16083152 6.57288336 1 3 C0.67 2.01 0.34 1.02 0 0 Z " fill="#F7CA3D" transform="translate(7,61)"/>
<path d="M0 0 C-0.33 0.66 -0.66 1.32 -1 2 C-1.66 2 -2.32 2 -3 2 C-3.33 2.99 -3.66 3.98 -4 5 C-5 6 -5 6 -8.4375 6.25 C-9.613125 6.1675 -10.78875 6.085 -12 6 C-12.66 5.01 -13.32 4.02 -14 3 C-9.07015675 0.96006486 -5.42039575 -0.40652968 0 0 Z " fill="#FABC14" transform="translate(54,33)"/>
<path d="M0 0 C-0.99 0.495 -0.99 0.495 -2 1 C-1.34 1.66 -0.68 2.32 0 3 C-2.24743045 3.53181175 -4.49807102 4.05007126 -6.75 4.5625 C-8.62945312 4.99755859 -8.62945312 4.99755859 -10.546875 5.44140625 C-13.59473748 5.93444283 -15.17641828 6.07666879 -18 5 C-17 3 -17 3 -13.9453125 1.89453125 C-12.68460937 1.53746094 -11.42390625 1.18039063 -10.125 0.8125 C-8.86945313 0.44769531 -7.61390625 0.08289063 -6.3203125 -0.29296875 C-3 -1 -3 -1 0 0 Z " fill="#F8D251" transform="translate(130,31)"/>
<path d="M0 0 C-0.33 2.31 -0.66 4.62 -1 7 C-1.804375 7.12375 -2.60875 7.2475 -3.4375 7.375 C-4.7059375 7.684375 -4.7059375 7.684375 -6 8 C-6.33 8.66 -6.66 9.32 -7 10 C-7.625 6.625 -7.625 6.625 -8 3 C-5.48696401 0.48696401 -3.51117809 0 0 0 Z " fill="#FABE14" transform="translate(73,134)"/>
<path d="M0 0 C-1.65 1.65 -3.3 3.3 -5 5 C-3.68 5.33 -2.36 5.66 -1 6 C-5.29 6 -9.58 6 -14 6 C-8.85599002 0.85599002 -7.11570543 -0.26851719 0 0 Z " fill="#F7CB3F" transform="translate(89,100)"/>
<path d="M0 0 C5.61 0 11.22 0 17 0 C17.33 0.99 17.66 1.98 18 3 C11.64012196 3.20190089 6.14778871 2.6277833 0 1 C0 0.67 0 0.34 0 0 Z " fill="#FABF18" transform="translate(19,53)"/>
<path d="M0 0 C-3.26737303 3.26737303 -6.83168198 3.95672896 -11.375 4.125 C-12.24125 4.08375 -13.1075 4.0425 -14 4 C-13.4375 2.0625 -13.4375 2.0625 -12 0 C-7.71249148 -1.05165303 -4.25621291 -1.16078534 0 0 Z " fill="#FABE10" transform="translate(98,101)"/>
<path d="M0 0 C0.99 0 1.98 0 3 0 C5.29013653 3.4352048 5.17842973 4.985331 5 9 C3.35 9 1.7 9 0 9 C0 6.03 0 3.06 0 0 Z " fill="#F8C01E" transform="translate(169,14)"/>
<path d="M0 0 C2.64 0 5.28 0 8 0 C8 1.32 8 2.64 8 4 C6.35 3.67 4.7 3.34 3 3 C3 3.66 3 4.32 3 5 C2.01 5 1.02 5 0 5 C0 3.35 0 1.7 0 0 Z " fill="#FBBF0F" transform="translate(169,51)"/>
<path d="M0 0 C-2.57213134 1.61949011 -3.67669159 2.04408751 -6.75 1.625 C-7.4925 1.41875 -8.235 1.2125 -9 1 C-9 0.67 -9 0.34 -9 0 C-5.62182575 -0.84454356 -3.32534757 -1.10844919 0 0 Z M-7 3 C-6.34 3 -5.68 3 -5 3 C-5 3.66 -5 4.32 -5 5 C-2.03 5 0.94 5 4 5 C4 5.33 4 5.66 4 6 C-2.435 6.495 -2.435 6.495 -9 7 C-8.34 5.68 -7.68 4.36 -7 3 Z " fill="#F9CD41" transform="translate(58,32)"/>
<path d="M0 0 C-0.34879632 3.25543229 -1.02133261 4.01873107 -3.5625 6.25 C-4.366875 6.8275 -5.17125 7.405 -6 8 C-6.66 7.67 -7.32 7.34 -8 7 C-8 6.01 -8 5.02 -8 4 C-7.34 4 -6.68 4 -6 4 C-5.67 3.01 -5.34 2.02 -5 1 C-3 0 -3 0 0 0 Z " fill="#F9C121" transform="translate(53,158)"/>
<path d="M0 0 C8.415 1.485 8.415 1.485 17 3 C17 3.33 17 3.66 17 4 C15.9275 4.144375 14.855 4.28875 13.75 4.4375 C10.21662969 4.87348673 10.21662969 4.87348673 7.75 5.6875 C6 6 6 6 3 4 C3.33 3.67 3.66 3.34 4 3 C2.68 2.34 1.36 1.68 0 1 C0 0.67 0 0.34 0 0 Z " fill="#F9D04E" transform="translate(11,49)"/>
<path d="M0 0 C2.31 0.33 4.62 0.66 7 1 C7.33 1.99 7.66 2.98 8 4 C7.01 4.99 6.02 5.98 5 7 C3.02 6.01 1.04 5.02 -1 4 C-0.67 2.68 -0.34 1.36 0 0 Z " fill="#F8BE10" transform="translate(162,8)"/>
<path d="M0 0 C1 3 1 3 1 5 C0.01 5 -0.98 5 -2 5 C-2.226875 5.639375 -2.45375 6.27875 -2.6875 6.9375 C-4 9 -4 9 -6.625 9.75 C-7.40875 9.8325 -8.1925 9.915 -9 10 C-8.06409496 8.8944811 -7.12620142 7.79064547 -6.1875 6.6875 C-5.66542969 6.07261719 -5.14335938 5.45773438 -4.60546875 4.82421875 C-3.12827531 3.14575321 -1.59960869 1.56117966 0 0 Z " fill="#F9C735" transform="translate(90,110)"/>
<path d="M0 0 C2.1519437 3.22791555 2.20086443 4.28400809 2 8 C1.67 7.34 1.34 6.68 1 6 C-2.72614153 7.11854586 -2.72614153 7.11854586 -5 10 C-5.66 9.67 -6.32 9.34 -7 9 C-4.69 6.03 -2.38 3.06 0 0 Z " fill="#F8CA32" transform="translate(52,152)"/>
<path d="M0 0 C0.66 1.32 1.32 2.64 2 4 C-0.64 6.64 -3.28 9.28 -6 12 C-6 8.36804504 -5.04546845 7.25286089 -3 4.3125 C-2.443125 3.50425781 -1.88625 2.69601563 -1.3125 1.86328125 C-0.879375 1.24839844 -0.44625 0.63351563 0 0 Z " fill="#F7D152" transform="translate(28,183)"/>
<path d="M0 0 C1.32 0.33 2.64 0.66 4 1 C2.95125002 3.62187494 2.35068687 4.79371361 -0.125 6.25 C-0.74375 6.4975 -1.3625 6.745 -2 7 C-2 3 -2 3 0 0 Z " fill="#F7D048" transform="translate(153,28)"/>
<path d="M0 0 C0.66 0 1.32 0 2 0 C0.25 4.875 0.25 4.875 -2 6 C-4.3494053 5.39239518 -6.68529088 4.72870472 -9 4 C-9 3.67 -9 3.34 -9 3 C-8.43410156 2.86722656 -7.86820313 2.73445313 -7.28515625 2.59765625 C-6.18494141 2.33275391 -6.18494141 2.33275391 -5.0625 2.0625 C-4.33160156 1.88847656 -3.60070312 1.71445312 -2.84765625 1.53515625 C-1.00030102 1.16112431 -1.00030102 1.16112431 0 0 Z " fill="#F8D14F" transform="translate(163,20)"/>
<path d="M0 0 C-2.38573379 1.89213369 -4.07175348 3.02391783 -7 4 C-9.00875442 3.72428861 -11.01178687 3.39764263 -13 3 C-13 2.67 -13 2.34 -13 2 C-11.21089097 1.47044766 -9.41860852 0.9516063 -7.625 0.4375 C-6.62726563 0.14746094 -5.62953125 -0.14257812 -4.6015625 -0.44140625 C-2 -1 -2 -1 0 0 Z " fill="#FACD44" transform="translate(71,28)"/>
<path d="M0 0 C1.32 1.32 2.64 2.64 4 4 C1.64561267 5.42944945 0.51967567 6.08661261 -2.25 5.625 C-2.8275 5.41875 -3.405 5.2125 -4 5 C-2.68 3.35 -1.36 1.7 0 0 Z " fill="#FBD146" transform="translate(96,87)"/>
<path d="M0 0 C2.79872437 2.52788007 4.45773019 4.20411134 5 8 C4.01 8.495 4.01 8.495 3 9 C3 7.68 3 6.36 3 5 C1.68 5.33 0.36 5.66 -1 6 C-0.67 4.02 -0.34 2.04 0 0 Z " fill="#F8CA32" transform="translate(169,9)"/>
<path d="M0 0 C1.65 0.33 3.3 0.66 5 1 C3.35830472 3.02054804 1.69088222 5.02043058 0 7 C-0.33 7 -0.66 7 -1 7 C-0.67 4.69 -0.34 2.38 0 0 Z " fill="#F9CC32" transform="translate(65,141)"/>
<path d="M0 0 C0.33 0.66 0.66 1.32 1 2 C-0.25 4.625 -0.25 4.625 -2 7 C-2.99 7 -3.98 7 -5 7 C-3.47793991 4.37098712 -2.15634036 2.15634036 0 0 Z " fill="#F6D048" transform="translate(80,120)"/>
<path d="M0 0 C1.67542976 0.28604898 3.34385343 0.61781233 5 1 C3.35 2.65 1.7 4.3 0 6 C-0.38218767 4.34385343 -0.71395102 2.67542976 -1 1 C-0.67 0.67 -0.34 0.34 0 0 Z " fill="#FAC533" transform="translate(117,90)"/>
<path d="M0 0 C0.33 1.32 0.66 2.64 1 4 C-0.98 4.99 -0.98 4.99 -3 6 C-3.99 5.34 -4.98 4.68 -6 4 C-4.02 2.68 -2.04 1.36 0 0 Z " fill="#F8C533" transform="translate(145,61)"/>
<path d="M0 0 C0.66 0.33 1.32 0.66 2 1 C-0.1875 3.0625 -0.1875 3.0625 -3 5 C-5.8125 4.75 -5.8125 4.75 -8 4 C-5.31143836 2.20762558 -3.0466145 1.01553817 0 0 Z " fill="#FACE45" transform="translate(91,19)"/>
<path d="M0 0 C-2.1875 2.0625 -2.1875 2.0625 -5 4 C-7.8125 3.75 -7.8125 3.75 -10 3 C-7.28464405 0.28464405 -3.67870689 -1.83935344 0 0 Z " fill="#F9CC3E" transform="translate(114,12)"/>
<path d="M0 0 C0.33 0.99 0.66 1.98 1 3 C-0.375 4.5 -0.375 4.5 -2 6 C-2.66 6 -3.32 6 -4 6 C-3.6875 4.125 -3.6875 4.125 -3 2 C-2.01 1.34 -1.02 0.68 0 0 Z " fill="#F6C636" transform="translate(33,179)"/>
<path d="M0 0 C0.66 0.33 1.32 0.66 2 1 C-0.31 2.65 -2.62 4.3 -5 6 C-5.66 5.34 -6.32 4.68 -7 4 C-1.7265625 0.77734375 -1.7265625 0.77734375 0 0 Z " fill="#FACB41" transform="translate(157,54)"/>
<path d="M0 0 C2.475 0.495 2.475 0.495 5 1 C5.33 2.32 5.66 3.64 6 5 C3.5625 4.1875 3.5625 4.1875 1 3 C0.67 2.01 0.34 1.02 0 0 Z " fill="#F8D34D" transform="translate(2,46)"/>
<path d="M0 0 C2 1 2 1 2 1 Z " fill="#F2EED0" transform="translate(22,195)"/>
<path d="" fill="#FEE1A7" transform="translate(0,0)"/>
</svg>
