<svg xmlns="http://www.w3.org/2000/svg" viewBox="0 0 64 64" fill="none">
  <circle cx="32" cy="32" r="30" fill="#4B2E83" opacity="0.1"/>
  <g fill="#4B2E83">
    <!-- Body -->
    <path d="M32 8c-2 0-4 1-5.5 3L18 22c-2 2.5-3 5.5-3 8.5 0 4 1.5 7.5 4 10l7 7c2 2 4.5 3 7 3s5-1 7-3l7-7c2.5-2.5 4-6 4-10 0-3-1-6-3-8.5L39.5 11c-1.5-2-3.5-3-5.5-3h-2z"/>
    <!-- Wing left -->
    <path d="M15 30c-3 1-6 3-8 6-1.5 2-2 4.5-1 7 .5 1.5 2 2.5 3.5 2 2-.5 4-2 5.5-4l4-5c1-1.5.5-3-.5-4s-2.5-1.5-3.5-2z" opacity="0.8"/>
    <!-- Wing right -->
    <path d="M49 30c3 1 6 3 8 6 1.5 2 2 4.5 1 7-.5 1.5-2 2.5-3.5 2-2-.5-4-2-5.5-4l-4-5c-1-1.5-.5-3 .5-4s2.5-1.5 3.5-2z" opacity="0.8"/>
    <!-- Beak -->
    <path d="M29 18h6l-3 7z" fill="#FFB81C"/>
    <!-- Eye left -->
    <circle cx="27" cy="16" r="2" fill="white"/>
    <circle cx="27.5" cy="15.5" r="1" fill="#1a1a1a"/>
    <!-- Eye right -->
    <circle cx="37" cy="16" r="2" fill="white"/>
    <circle cx="36.5" cy="15.5" r="1" fill="#1a1a1a"/>
    <!-- Tail feathers -->
    <path d="M28 48l-3 8h2l3-6zM32 48v8h1v-8zM36 48l3 8h-2l-3-6z" opacity="0.7"/>
  </g>
</svg>
