<svg width="200" height="200" version="1.1" xmlns="http://www.w3.org/2000/svg" desc="Created with imagetracer.js version 1.2.6" ><path fill="rgb(0,0,0)" stroke="rgb(0,0,0)" stroke-width="1" opacity="0" d="M 0 0 L 200 0 L 200 200 L 0 200 L 0 0 Z M 139 4 L 125 7 L 107 13 L 102 16 L 63 30 L 36 35 L 28 35 L 27 36 L 4 36 L 3 38 L 22 41 L 40 41 L 41 40 L 62 38 L 89 30 L 120 18 L 139 13 L 147 13 L 148 12 L 161 13 L 165 15 Q 168 17 168 22 L 182 27 Q 187 31 190 39 L 191 48 L 189 47 L 175 48 L 160 53 L 130 71 L 127 61 Q 122 53 113 49 L 98 46 L 80 47 L 70 50 L 49 52 L 48 53 L 29 53 L 14 50 L 4 46 Q 1 45 2 48 L 11 53 L 33 58 L 60 58 L 69 56 L 78 56 L 79 55 L 100 55 L 112 60 L 118 71 Q 119 80 115 85 L 103 95 L 92 99 L 85 99 L 77 104 L 76 106 Q 87 107 95 104 L 96 105 L 62 141 Q 63 143 60 142 L 21 194 L 22 195 L 70 143 Q 69 140 72 141 L 72 140 L 100 112 L 103 110 L 104 107 L 147 72 L 171 58 L 182 55 L 187 55 L 196 58 L 198 55 Q 200 37 193 29 Q 187 20 175 19 L 172 12 Q 167 6 159 4 L 139 4 Z M 164 20 L 160 23 L 144 22 L 143 21 L 134 22 L 130 25 Q 127 24 128 27 L 132 29 Q 125 33 114 34 Q 111 36 114 37 L 137 32 L 147 36 L 148 33 L 145 32 L 141 28 Q 140 25 144 26 Q 143 30 147 31 L 151 30 L 152 27 L 154 28 L 150 33 L 152 35 L 154 34 L 157 30 L 161 27 L 165 22 Q 166 19 164 20 Z M 90 60 L 89 61 L 71 62 L 64 64 L 55 64 L 54 65 L 23 65 L 9 61 Q 6 60 7 63 L 12 66 L 28 70 L 37 70 L 38 71 L 81 71 L 92 73 L 96 75 L 99 80 L 99 83 L 95 90 L 93 93 L 96 93 L 106 87 L 111 79 Q 112 71 109 67 Q 105 59 93 61 L 90 60 Z " /><path fill="rgb(251,190,20)" stroke="rgb(251,190,20)" stroke-width="1" opacity="0.9725490196078431" d="M 143.5 4 L 160.5 5 Q 168.1 6.8 172 12.5 L 174 19 Q 187.8 20.5 194 30.5 Q 199.3 39.2 197 55.5 L 196 58 L 189.5 55 L 177.5 55 L 159.5 63 L 133.5 81 L 81 129.5 Q 81.8 131.8 79.5 131 L 58 153.5 L 58 155 L 55 156.5 L 21.5 195 L 23 192.5 Q 55.7 143.2 98 103.5 L 96.5 103 L 90.5 105 L 76.5 106 L 77.5 104 L 83.5 100 L 93.5 99 L 99.5 97 Q 109.1 93.1 115 85.5 Q 118.7 81.2 119 73.5 Q 117.6 64.9 112.5 60 L 102.5 55 L 84.5 54 L 83.5 55 L 72.5 55 L 71.5 56 L 54.5 57 L 53.5 58 L 36.5 58 L 15.5 54 L 5.5 50 L 3 47.5 L 4.5 47 L 14.5 51 L 25.5 53 L 52.5 53 L 84.5 47 L 102.5 47 L 113.5 50 L 124 57.5 Q 129.1 62.9 130.5 72 Q 144.8 59.8 163.5 52 L 177.5 48 L 191 48 Q 191.8 33.1 182.5 27 Q 177.2 22.7 169 22 Q 169.1 17.1 165.5 15 L 158.5 12 L 141.5 12 L 127.5 15 L 81.5 32 L 63.5 37 L 45.5 39 L 44.5 40 L 16.5 40 L 4 37.5 L 31.5 36 L 60.5 31 Q 88.7 22.7 113.5 11 L 143.5 4 Z " /><path fill="rgb(251,190,20)" stroke="rgb(251,190,20)" stroke-width="1" opacity="0.9725490196078431" d="M 164.5 20 L 164 21.5 L 161.5 26 L 157 28.5 L 152.5 34 Q 150.3 34.8 151 32.5 Q 155 31.1 154 26 Q 151.3 24.9 152 27.5 Q 150.5 31.3 145 30 L 144 25 Q 139.5 23.3 141 28.5 L 143.5 32 L 147 33 Q 148.3 36.3 143.5 35 Q 141.3 30.7 133.5 32 L 113.5 36 L 113.5 35 L 133 30 L 131.5 27 Q 127.8 28 129 25 Q 134.4 20.2 147.5 22 L 148.5 23 L 159.5 24 L 164.5 20 Z " /><path fill="rgb(251,190,20)" stroke="rgb(251,190,20)" stroke-width="1" opacity="0.9725490196078431" d="M 84.5 61 L 102.5 62 L 109 67.5 L 111 76.5 Q 109.5 83.5 104.5 87 L 93.5 93 L 94 91.5 L 99 83.5 L 99 78.5 L 96.5 75 L 85.5 71 L 56.5 70 L 55.5 71 L 44.5 71 L 43.5 70 L 32.5 70 L 31.5 69 L 20.5 68 L 12.5 66 L 8 62.5 L 9.5 62 L 18.5 65 L 26.5 65 L 27.5 66 L 48.5 66 L 49.5 65 L 59.5 65 L 60.5 64 L 83.5 62 L 84.5 61 Z " /><path fill="rgb(251,226,159)" stroke="rgb(251,226,159)" stroke-width="1" opacity="0.2" d="M 138.5 4 L 143 4.5 L 138.5 5 L 138.5 4 Z " /><path fill="rgb(251,226,159)" stroke="rgb(251,226,159)" stroke-width="1" opacity="0.2" d="M 155.5 4 L 159 4.5 L 155.5 5 L 155.5 4 Z " /><path fill="rgb(251,226,159)" stroke="rgb(251,226,159)" stroke-width="1" opacity="0.2" d="M 132.5 5 L 135 5.5 L 132.5 6 L 132.5 5 Z " /><path fill="rgb(251,226,159)" stroke="rgb(251,226,159)" stroke-width="1" opacity="0.2" d="M 124.5 7 L 127 7.5 L 124.5 8 L 124.5 7 Z " /><path fill="rgb(251,226,159)" stroke="rgb(251,226,159)" stroke-width="1" opacity="0.2" d="M 169.5 9 L 171.5 12 L 169.5 9 Z " /><path fill="rgb(251,226,159)" stroke="rgb(251,226,159)" stroke-width="1" opacity="0.2" d="M 141.5 12 L 147 12.5 L 141.5 13 L 141.5 12 Z " /><path fill="rgb(251,226,159)" stroke="rgb(251,226,159)" stroke-width="1" opacity="0.2" d="M 153.5 12 L 159 12.5 L 153.5 13 L 153.5 12 Z " /><path fill="rgb(251,226,159)" stroke="rgb(251,226,159)" stroke-width="1" opacity="0.2" d="M 131.5 14 L 134 14.5 L 131.5 15 L 131.5 14 Z " /><path fill="rgb(251,226,159)" stroke="rgb(251,226,159)" stroke-width="1" opacity="0.2" d="M 127.5 15 L 130 15.5 L 127.5 16 L 127.5 15 Z " /><path fill="rgb(251,226,159)" stroke="rgb(251,226,159)" stroke-width="1" opacity="0.2" d="M 165.5 15 L 168 18.5 L 167 18.5 L 165.5 15 Z " /><path fill="rgb(251,226,159)" stroke="rgb(251,226,159)" stroke-width="1" opacity="0.2" d="M 163.5 20 L 164.5 22 L 162 21.5 L 163.5 20 Z " /><path fill="rgb(251,226,159)" stroke="rgb(251,226,159)" stroke-width="1" opacity="0.2" d="M 168.5 20 L 169 22 L 171 22.5 L 169.5 23 L 168.5 20 Z " /><path fill="rgb(251,226,159)" stroke="rgb(251,226,159)" stroke-width="1" opacity="0.2" d="M 138.5 21 L 143 21.5 L 138.5 22 L 138.5 21 Z " /><path fill="rgb(251,226,159)" stroke="rgb(251,226,159)" stroke-width="1" opacity="0.2" d="M 148.5 22 L 152 22.5 L 148.5 23 L 148.5 22 Z " /><path fill="rgb(251,226,159)" stroke="rgb(251,226,159)" stroke-width="1" opacity="0.2" d="M 160.5 22 L 159.5 24 L 154 23.5 L 160.5 22 Z " /><path fill="rgb(251,226,159)" stroke="rgb(251,226,159)" stroke-width="1" opacity="0.2" d="M 131.5 23 L 130.5 25 L 131.5 23 Z " /><path fill="rgb(251,226,159)" stroke="rgb(251,226,159)" stroke-width="1" opacity="0.2" d="M 187.5 23 L 192.5 29 L 187.5 23 Z " /><path fill="rgb(251,226,159)" stroke="rgb(251,226,159)" stroke-width="1" opacity="0.2" d="M 141.5 25 L 144 25.5 L 141.5 26 L 141.5 25 Z " /><path fill="rgb(251,226,159)" stroke="rgb(251,226,159)" stroke-width="1" opacity="0.2" d="M 179.5 25 L 180.5 27 L 179.5 25 Z " /><path fill="rgb(251,226,159)" stroke="rgb(251,226,159)" stroke-width="1" opacity="0.2" d="M 130.5 27 L 133 28.5 Q 133.8 30.8 131.5 30 L 131.5 28 L 130.5 27 Z " /><path fill="rgb(251,226,159)" stroke="rgb(251,226,159)" stroke-width="1" opacity="0.2" d="M 158.5 27 L 157.5 29 L 158.5 27 Z " /><path fill="rgb(251,226,159)" stroke="rgb(251,226,159)" stroke-width="1" opacity="0.2" d="M 182.5 27 L 186.5 32 L 182.5 27 Z " /><path fill="rgb(251,226,159)" stroke="rgb(251,226,159)" stroke-width="1" opacity="0.2" d="M 151.5 28 L 150.5 30 L 151.5 28 Z " /><path fill="rgb(251,226,159)" stroke="rgb(251,226,159)" stroke-width="1" opacity="0.2" d="M 153.5 28 L 154 29.5 L 151 33.5 L 151.5 35 L 150 32.5 L 153.5 28 Z " /><path fill="rgb(251,226,159)" stroke="rgb(251,226,159)" stroke-width="1" opacity="0.2" d="M 58.5 30 L 61 30.5 L 58.5 31 L 58.5 30 Z " /><path fill="rgb(251,226,159)" stroke="rgb(251,226,159)" stroke-width="1" opacity="0.2" d="M 127.5 30 L 130 30.5 L 127.5 31 L 127.5 30 Z " /><path fill="rgb(251,226,159)" stroke="rgb(251,226,159)" stroke-width="1" opacity="0.2" d="M 142.5 30 L 143.5 32 L 142.5 30 Z " /><path fill="rgb(251,226,159)" stroke="rgb(251,226,159)" stroke-width="1" opacity="0.2" d="M 146.5 30 L 149 30.5 L 146.5 31 L 146.5 30 Z " /><path fill="rgb(251,226,159)" stroke="rgb(251,226,159)" stroke-width="1" opacity="0.2" d="M 156.5 30 L 153.5 34 L 156.5 30 Z " /><path fill="rgb(251,226,159)" stroke="rgb(251,226,159)" stroke-width="1" opacity="0.2" d="M 49.5 32 L 52 32.5 L 49.5 33 L 49.5 32 Z " /><path fill="rgb(251,226,159)" stroke="rgb(251,226,159)" stroke-width="1" opacity="0.2" d="M 133.5 32 L 136 32.5 L 133.5 33 L 133.5 32 Z " /><path fill="rgb(251,226,159)" stroke="rgb(251,226,159)" stroke-width="1" opacity="0.2" d="M 139.5 32 L 140.5 34 L 139.5 32 Z " /><path fill="rgb(251,226,159)" stroke="rgb(251,226,159)" stroke-width="1" opacity="0.2" d="M 43.5 33 L 47 33.5 L 43.5 34 L 43.5 33 Z " /><path fill="rgb(251,226,159)" stroke="rgb(251,226,159)" stroke-width="1" opacity="0.2" d="M 147.5 33 L 148 34.5 L 144.5 36 L 144.5 35 Q 148 36 147.5 33 Z " /><path fill="rgb(251,226,159)" stroke="rgb(251,226,159)" stroke-width="1" opacity="0.2" d="M 36.5 34 L 40 34.5 L 36.5 35 L 36.5 34 Z " /><path fill="rgb(251,226,159)" stroke="rgb(251,226,159)" stroke-width="1" opacity="0.2" d="M 113.5 34 L 115 34.5 L 113 35.5 L 116 36.5 L 113.5 37 Q 110.5 35.5 113.5 34 Z " /><path fill="rgb(251,226,159)" stroke="rgb(251,226,159)" stroke-width="1" opacity="0.2" d="M 123.5 34 L 126 34.5 L 123.5 35 L 123.5 34 Z " /><path fill="rgb(251,226,159)" stroke="rgb(251,226,159)" stroke-width="1" opacity="0.2" d="M 27.5 35 L 32 35.5 L 27.5 36 L 27.5 35 Z " /><path fill="rgb(251,226,159)" stroke="rgb(251,226,159)" stroke-width="1" opacity="0.2" d="M 118.5 35 L 121 35.5 L 118.5 36 L 118.5 35 Z " /><path fill="rgb(251,226,159)" stroke="rgb(251,226,159)" stroke-width="1" opacity="0.2" d="M 3 36 L 19 36.5 L 4.5 37 L 3.5 38 L 3 36 Z " /><path fill="rgb(251,226,159)" stroke="rgb(251,226,159)" stroke-width="1" opacity="0.2" d="M 59.5 37 L 62 37.5 L 59.5 38 L 59.5 37 Z " /><path fill="rgb(251,226,159)" stroke="rgb(251,226,159)" stroke-width="1" opacity="0.2" d="M 7.5 38 L 10 38.5 L 7.5 39 L 7.5 38 Z " /><path fill="rgb(251,226,159)" stroke="rgb(251,226,159)" stroke-width="1" opacity="0.2" d="M 52.5 38 L 55 38.5 L 52.5 39 L 52.5 38 Z " /><path fill="rgb(251,226,159)" stroke="rgb(251,226,159)" stroke-width="1" opacity="0.2" d="M 12.5 39 L 16 39.5 L 12.5 40 L 12.5 39 Z " /><path fill="rgb(251,226,159)" stroke="rgb(251,226,159)" stroke-width="1" opacity="0.2" d="M 45.5 39 L 49 39.5 L 45.5 40 L 45.5 39 Z " /><path fill="rgb(251,226,159)" stroke="rgb(251,226,159)" stroke-width="1" opacity="0.2" d="M 21.5 40 L 40 40.5 L 21.5 41 L 21.5 40 Z " /><path fill="rgb(251,226,159)" stroke="rgb(251,226,159)" stroke-width="1" opacity="0.2" d="M 190.5 40 L 191 43.5 L 190 43.5 L 190.5 40 Z " /><path fill="rgb(251,226,159)" stroke="rgb(251,226,159)" stroke-width="1" opacity="0.2" d="M 197.5 40 L 198 54.5 L 197 54.5 L 197.5 40 Z " /><path fill="rgb(251,226,159)" stroke="rgb(251,226,159)" stroke-width="1" opacity="0.2" d="M 2 46 L 4 46.5 L 3 47.5 L 4.5 50 L 2 46 Z " /><path fill="rgb(251,226,159)" stroke="rgb(251,226,159)" stroke-width="1" opacity="0.2" d="M 90.5 46 L 98 46.5 L 90.5 47 L 90.5 46 Z " /><path fill="rgb(251,226,159)" stroke="rgb(251,226,159)" stroke-width="1" opacity="0.2" d="M 79.5 47 L 84 47.5 L 79.5 48 L 79.5 47 Z " /><path fill="rgb(251,226,159)" stroke="rgb(251,226,159)" stroke-width="1" opacity="0.2" d="M 103.5 47 L 107 47.5 L 103.5 48 L 103.5 47 Z " /><path fill="rgb(251,226,159)" stroke="rgb(251,226,159)" stroke-width="1" opacity="0.2" d="M 179.5 47 L 189 47.5 L 179.5 48 L 179.5 47 Z " /><path fill="rgb(251,226,159)" stroke="rgb(251,226,159)" stroke-width="1" opacity="0.2" d="M 74.5 48 L 77 48.5 L 74.5 49 L 74.5 48 Z " /><path fill="rgb(251,226,159)" stroke="rgb(251,226,159)" stroke-width="1" opacity="0.2" d="M 174.5 48 L 177 48.5 L 174.5 49 L 174.5 48 Z " /><path fill="rgb(251,226,159)" stroke="rgb(251,226,159)" stroke-width="1" opacity="0.2" d="M 14.5 50 L 17 50.5 L 14.5 51 L 14.5 50 Z " /><path fill="rgb(251,226,159)" stroke="rgb(251,226,159)" stroke-width="1" opacity="0.2" d="M 63.5 50 L 67 50.5 L 63.5 51 L 63.5 50 Z " /><path fill="rgb(251,226,159)" stroke="rgb(251,226,159)" stroke-width="1" opacity="0.2" d="M 19.5 51 L 22 51.5 L 19.5 52 L 19.5 51 Z " /><path fill="rgb(251,226,159)" stroke="rgb(251,226,159)" stroke-width="1" opacity="0.2" d="M 57.5 51 L 61 51.5 L 57.5 52 L 57.5 51 Z " /><path fill="rgb(251,226,159)" stroke="rgb(251,226,159)" stroke-width="1" opacity="0.2" d="M 25.5 52 L 28 52.5 L 25.5 53 L 25.5 52 Z " /><path fill="rgb(251,226,159)" stroke="rgb(251,226,159)" stroke-width="1" opacity="0.2" d="M 48.5 52 L 53 52.5 L 48.5 53 L 48.5 52 Z " /><path fill="rgb(251,226,159)" stroke="rgb(251,226,159)" stroke-width="1" opacity="0.2" d="M 119.5 53 L 120.5 55 L 119.5 53 Z " /><path fill="rgb(251,226,159)" stroke="rgb(251,226,159)" stroke-width="1" opacity="0.2" d="M 159.5 53 L 161 53.5 L 156.5 56 L 157.5 54 L 159.5 53 Z " /><path fill="rgb(251,226,159)" stroke="rgb(251,226,159)" stroke-width="1" opacity="0.2" d="M 84.5 54 L 96 54.5 L 84.5 55 L 84.5 54 Z " /><path fill="rgb(251,226,159)" stroke="rgb(251,226,159)" stroke-width="1" opacity="0.2" d="M 21.5 55 L 24 55.5 L 21.5 56 L 21.5 55 Z " /><path fill="rgb(251,226,159)" stroke="rgb(251,226,159)" stroke-width="1" opacity="0.2" d="M 72.5 55 L 78 55.5 L 72.5 56 L 72.5 55 Z " /><path fill="rgb(251,226,159)" stroke="rgb(251,226,159)" stroke-width="1" opacity="0.2" d="M 100.5 55 L 103 55.5 L 100.5 56 L 100.5 55 Z " /><path fill="rgb(251,226,159)" stroke="rgb(251,226,159)" stroke-width="1" opacity="0.2" d="M 177.5 55 L 181 55.5 L 177.5 56 L 177.5 55 Z " /><path fill="rgb(251,226,159)" stroke="rgb(251,226,159)" stroke-width="1" opacity="0.2" d="M 187.5 55 L 190 55.5 L 187.5 56 L 187.5 55 Z " /><path fill="rgb(251,226,159)" stroke="rgb(251,226,159)" stroke-width="1" opacity="0.2" d="M 26.5 56 L 29 56.5 L 26.5 57 L 26.5 56 Z " /><path fill="rgb(251,226,159)" stroke="rgb(251,226,159)" stroke-width="1" opacity="0.2" d="M 64.5 56 L 68 56.5 L 64.5 57 L 64.5 56 Z " /><path fill="rgb(251,226,159)" stroke="rgb(251,226,159)" stroke-width="1" opacity="0.2" d="M 153.5 56 L 155 56.5 L 150.5 59 L 151.5 57 L 153.5 56 Z " /><path fill="rgb(251,226,159)" stroke="rgb(251,226,159)" stroke-width="1" opacity="0.2" d="M 32.5 57 L 36 57.5 L 32.5 58 L 32.5 57 Z " /><path fill="rgb(251,226,159)" stroke="rgb(251,226,159)" stroke-width="1" opacity="0.2" d="M 54.5 57 L 60 57.5 L 54.5 58 L 54.5 57 Z " /><path fill="rgb(251,226,159)" stroke="rgb(251,226,159)" stroke-width="1" opacity="0.2" d="M 109.5 58 L 110.5 60 L 109.5 58 Z " /><path fill="rgb(251,226,159)" stroke="rgb(251,226,159)" stroke-width="1" opacity="0.2" d="M 124.5 58 L 128 62.5 L 126 61.5 L 124.5 58 Z " /><path fill="rgb(251,226,159)" stroke="rgb(251,226,159)" stroke-width="1" opacity="0.2" d="M 112.5 60 L 113.5 62 L 112.5 60 Z " /><path fill="rgb(251,226,159)" stroke="rgb(251,226,159)" stroke-width="1" opacity="0.2" d="M 146.5 60 L 145.5 62 L 146.5 60 Z " /><path fill="rgb(251,226,159)" stroke="rgb(251,226,159)" stroke-width="1" opacity="0.2" d="M 7 61 L 9 61.5 L 8 62.5 L 9.5 65 L 7 61 Z " /><path fill="rgb(251,226,159)" stroke="rgb(251,226,159)" stroke-width="1" opacity="0.2" d="M 79.5 61 L 84 61.5 L 79.5 62 L 79.5 61 Z " /><path fill="rgb(251,226,159)" stroke="rgb(251,226,159)" stroke-width="1" opacity="0.2" d="M 98.5 61 L 101 61.5 L 98.5 62 L 98.5 61 Z " /><path fill="rgb(251,226,159)" stroke="rgb(251,226,159)" stroke-width="1" opacity="0.2" d="M 70.5 62 L 75 62.5 L 70.5 63 L 70.5 62 Z " /><path fill="rgb(251,226,159)" stroke="rgb(251,226,159)" stroke-width="1" opacity="0.2" d="M 161.5 62 L 160.5 64 L 159 63.5 L 161.5 62 Z " /><path fill="rgb(251,226,159)" stroke="rgb(251,226,159)" stroke-width="1" opacity="0.2" d="M 64.5 63 L 67 63.5 L 64.5 64 L 64.5 63 Z " /><path fill="rgb(251,226,159)" stroke="rgb(251,226,159)" stroke-width="1" opacity="0.2" d="M 105.5 63 L 108.5 67 L 105.5 63 Z " /><path fill="rgb(251,226,159)" stroke="rgb(251,226,159)" stroke-width="1" opacity="0.2" d="M 114.5 63 L 115.5 65 L 114.5 63 Z " /><path fill="rgb(251,226,159)" stroke="rgb(251,226,159)" stroke-width="1" opacity="0.2" d="M 18.5 64 L 22 64.5 L 18.5 65 L 18.5 64 Z " /><path fill="rgb(251,226,159)" stroke="rgb(251,226,159)" stroke-width="1" opacity="0.2" d="M 54.5 64 L 60 64.5 L 54.5 65 L 54.5 64 Z " /><path fill="rgb(251,226,159)" stroke="rgb(251,226,159)" stroke-width="1" opacity="0.2" d="M 27.5 65 L 49 65.5 L 27.5 66 L 27.5 65 Z " /><path fill="rgb(251,226,159)" stroke="rgb(251,226,159)" stroke-width="1" opacity="0.2" d="M 137.5 66 L 136.5 68 L 137.5 66 Z " /><path fill="rgb(251,226,159)" stroke="rgb(251,226,159)" stroke-width="1" opacity="0.2" d="M 154.5 66 L 153.5 68 L 154.5 66 Z " /><path fill="rgb(251,226,159)" stroke="rgb(251,226,159)" stroke-width="1" opacity="0.2" d="M 22.5 68 L 25 68.5 L 22.5 69 L 22.5 68 Z " /><path fill="rgb(251,226,159)" stroke="rgb(251,226,159)" stroke-width="1" opacity="0.2" d="M 134.5 68 L 132.5 71 L 134.5 68 Z " /><path fill="rgb(251,226,159)" stroke="rgb(251,226,159)" stroke-width="1" opacity="0.2" d="M 151.5 68 L 150.5 70 L 151.5 68 Z " /><path fill="rgb(251,226,159)" stroke="rgb(251,226,159)" stroke-width="1" opacity="0.2" d="M 27.5 69 L 32 69.5 L 27.5 70 L 27.5 69 Z " /><path fill="rgb(251,226,159)" stroke="rgb(251,226,159)" stroke-width="1" opacity="0.2" d="M 37.5 70 L 44 70.5 L 37.5 71 L 37.5 70 Z " /><path fill="rgb(251,226,159)" stroke="rgb(251,226,159)" stroke-width="1" opacity="0.2" d="M 56.5 70 L 76 70.5 L 56.5 71 L 56.5 70 Z " /><path fill="rgb(251,226,159)" stroke="rgb(251,226,159)" stroke-width="1" opacity="0.2" d="M 148.5 70 L 147.5 72 L 148.5 70 Z " /><path fill="rgb(251,226,159)" stroke="rgb(251,226,159)" stroke-width="1" opacity="0.2" d="M 81.5 71 L 86 71.5 L 81.5 72 L 81.5 71 Z " /><path fill="rgb(251,226,159)" stroke="rgb(251,226,159)" stroke-width="1" opacity="0.2" d="M 88.5 72 L 91 72.5 L 88.5 73 L 88.5 72 Z " /><path fill="rgb(251,226,159)" stroke="rgb(251,226,159)" stroke-width="1" opacity="0.2" d="M 145.5 72 L 143.5 75 L 145.5 72 Z " /><path fill="rgb(251,226,159)" stroke="rgb(251,226,159)" stroke-width="1" opacity="0.2" d="M 118.5 73 L 119 75.5 L 118 75.5 L 118.5 73 Z " /><path fill="rgb(251,226,159)" stroke="rgb(251,226,159)" stroke-width="1" opacity="0.2" d="M 96.5 75 L 97.5 77 L 96.5 75 Z " /><path fill="rgb(251,226,159)" stroke="rgb(251,226,159)" stroke-width="1" opacity="0.2" d="M 141.5 75 L 139.5 78 L 141.5 75 Z " /><path fill="rgb(251,226,159)" stroke="rgb(251,226,159)" stroke-width="1" opacity="0.2" d="M 137.5 78 L 135.5 81 L 137.5 78 Z " /><path fill="rgb(251,226,159)" stroke="rgb(251,226,159)" stroke-width="1" opacity="0.2" d="M 109.5 80 L 110 81.5 L 108 82.5 L 109.5 80 Z " /><path fill="rgb(251,226,159)" stroke="rgb(251,226,159)" stroke-width="1" opacity="0.2" d="M 116.5 81 L 117 82.5 L 115 83.5 L 116.5 81 Z " /><path fill="rgb(251,226,159)" stroke="rgb(251,226,159)" stroke-width="1" opacity="0.2" d="M 133.5 81 L 131.5 84 L 133.5 81 Z " /><path fill="rgb(251,226,159)" stroke="rgb(251,226,159)" stroke-width="1" opacity="0.2" d="M 106.5 85 L 105.5 87 L 106.5 85 Z " /><path fill="rgb(251,226,159)" stroke="rgb(251,226,159)" stroke-width="1" opacity="0.2" d="M 114.5 85 L 109.5 91 L 114.5 85 Z " /><path fill="rgb(251,226,159)" stroke="rgb(251,226,159)" stroke-width="1" opacity="0.2" d="M 127.5 86 L 124.5 90 L 127.5 86 Z " /><path fill="rgb(251,226,159)" stroke="rgb(251,226,159)" stroke-width="1" opacity="0.2" d="M 96.5 87 L 95.5 89 L 96.5 87 Z " /><path fill="rgb(251,226,159)" stroke="rgb(251,226,159)" stroke-width="1" opacity="0.2" d="M 103.5 87 L 101.5 90 L 99.5 91 L 100.5 89 L 103.5 87 Z " /><path fill="rgb(251,226,159)" stroke="rgb(251,226,159)" stroke-width="1" opacity="0.2" d="M 93.5 91 L 96 92.5 L 94.5 93 L 92 92.5 L 93.5 91 Z " /><path fill="rgb(251,226,159)" stroke="rgb(251,226,159)" stroke-width="1" opacity="0.2" d="M 121.5 91 L 116.5 97 L 121.5 91 Z " /><path fill="rgb(251,226,159)" stroke="rgb(251,226,159)" stroke-width="1" opacity="0.2" d="M 106.5 92 L 105.5 94 L 103.5 95 L 104.5 93 L 106.5 92 Z " /><path fill="rgb(251,226,159)" stroke="rgb(251,226,159)" stroke-width="1" opacity="0.2" d="M 84.5 99 L 87 99.5 L 84.5 100 L 84.5 99 Z " /><path fill="rgb(251,226,159)" stroke="rgb(251,226,159)" stroke-width="1" opacity="0.2" d="M 82.5 100 L 81.5 102 L 82.5 100 Z " /><path fill="rgb(251,226,159)" stroke="rgb(251,226,159)" stroke-width="1" opacity="0.2" d="M 111.5 100 L 105.5 107 L 111.5 100 Z " /><path fill="rgb(251,226,159)" stroke="rgb(251,226,159)" stroke-width="1" opacity="0.2" d="M 79.5 102 L 78.5 104 L 79.5 102 Z " /><path fill="rgb(251,226,159)" stroke="rgb(251,226,159)" stroke-width="1" opacity="0.2" d="M 96 103 L 98 103.5 L 76 124.5 L 96 104.5 L 96 103 Z " /><path fill="rgb(251,226,159)" stroke="rgb(251,226,159)" stroke-width="1" opacity="0.2" d="M 76.5 104 L 75.5 106 L 76.5 104 Z " /><path fill="rgb(251,226,159)" stroke="rgb(251,226,159)" stroke-width="1" opacity="0.2" d="M 91.5 104 L 94 104.5 L 91.5 105 L 91.5 104 Z " /><path fill="rgb(251,226,159)" stroke="rgb(251,226,159)" stroke-width="1" opacity="0.2" d="M 83.5 105 L 88 105.5 L 83.5 106 L 83.5 105 Z " /><path fill="rgb(251,226,159)" stroke="rgb(251,226,159)" stroke-width="1" opacity="0.2" d="M 103.5 108 L 102.5 110 L 103.5 108 Z " /><path fill="rgb(251,226,159)" stroke="rgb(251,226,159)" stroke-width="1" opacity="0.2" d="M 95.5 115 L 81.5 130 L 95.5 115 Z " /><path fill="rgb(251,226,159)" stroke="rgb(251,226,159)" stroke-width="1" opacity="0.2" d="M 71.5 130 L 67.5 135 L 71.5 130 Z " /><path fill="rgb(251,226,159)" stroke="rgb(251,226,159)" stroke-width="1" opacity="0.2" d="M 79.5 131 L 75.5 136 L 79.5 131 Z " /><path fill="rgb(251,226,159)" stroke="rgb(251,226,159)" stroke-width="1" opacity="0.2" d="M 64.5 138 L 62.5 141 L 64.5 138 Z " /><path fill="rgb(251,226,159)" stroke="rgb(251,226,159)" stroke-width="1" opacity="0.2" d="M 69.5 142 L 58.5 154 L 69.5 142 Z " /><path fill="rgb(251,226,159)" stroke="rgb(251,226,159)" stroke-width="1" opacity="0.2" d="M 58.5 145 L 55.5 149 L 58.5 145 Z " /><path fill="rgb(251,226,159)" stroke="rgb(251,226,159)" stroke-width="1" opacity="0.2" d="M 53.5 151 L 50.5 155 L 53.5 151 Z " /><path fill="rgb(251,226,159)" stroke="rgb(251,226,159)" stroke-width="1" opacity="0.2" d="M 56.5 155 L 55.5 157 L 56.5 155 Z " /><path fill="rgb(251,226,159)" stroke="rgb(251,226,159)" stroke-width="1" opacity="0.2" d="M 48.5 157 L 46.5 160 L 48.5 157 Z " /><path fill="rgb(251,226,159)" stroke="rgb(251,226,159)" stroke-width="1" opacity="0.2" d="M 53.5 159 L 48.5 165 L 53.5 159 Z " /><path fill="rgb(251,226,159)" stroke="rgb(251,226,159)" stroke-width="1" opacity="0.2" d="M 45.5 161 L 43.5 164 L 45.5 161 Z " /><path fill="rgb(251,226,159)" stroke="rgb(251,226,159)" stroke-width="1" opacity="0.2" d="M 41.5 166 L 39.5 169 L 41.5 166 Z " /><path fill="rgb(251,226,159)" stroke="rgb(251,226,159)" stroke-width="1" opacity="0.2" d="M 38.5 170 L 36.5 173 L 38.5 170 Z " /><path fill="rgb(251,226,159)" stroke="rgb(251,226,159)" stroke-width="1" opacity="0.2" d="M 43.5 170 L 37.5 177 L 43.5 170 Z " /><path fill="rgb(251,226,159)" stroke="rgb(251,226,159)" stroke-width="1" opacity="0.2" d="M 35.5 174 L 34 176.5 L 31.5 180 L 33 177.5 L 35.5 174 Z " /><path fill="rgb(251,226,159)" stroke="rgb(251,226,159)" stroke-width="1" opacity="0.2" d="M 35.5 179 L 32.5 183 L 35.5 179 Z " /><path fill="rgb(251,226,159)" stroke="rgb(251,226,159)" stroke-width="1" opacity="0.2" d="M 30.5 181 L 28.5 184 L 30.5 181 Z " /><path fill="rgb(251,226,159)" stroke="rgb(251,226,159)" stroke-width="1" opacity="0.2" d="M 27.5 185 L 25.5 188 L 27.5 185 Z " /><path fill="rgb(251,226,159)" stroke="rgb(251,226,159)" stroke-width="1" opacity="0.2" d="M 29.5 186 L 25.5 191 L 23 190.5 Q 24.3 187.8 25.5 190 L 29.5 186 Z " /><path fill="rgb(251,226,159)" stroke="rgb(251,226,159)" stroke-width="1" opacity="0.2" d="M 22.5 192 L 21.5 194 L 22.5 192 Z " /></svg>