<?xml version="1.0" encoding="UTF-8"?>
<svg version="1.1" xmlns="http://www.w3.org/2000/svg" viewBox="40 170 462 135" width="462" height="135">
<path d="M0 0 C0.66 0 1.32 0 2 0 C2.04898438 0.60328125 2.09796875 1.2065625 2.1484375 1.828125 C2.26058594 3.02695313 2.26058594 3.02695313 2.375 4.25 C2.47941406 5.43335938 2.47941406 5.43335938 2.5859375 6.640625 C3.02541008 9.14478952 3.61427885 10.86957156 5 13 C5.99 13.33 6.98 13.66 8 14 C7.95875 14.721875 7.9175 15.44375 7.875 16.1875 C8.00921305 19.20729369 8.75170619 21.26935729 10 24 C10.99 24 11.98 24 13 24 C13.495 22.515 13.495 22.515 14 21 C15.98 21.495 15.98 21.495 18 22 C17.525625 22.763125 17.05125 23.52625 16.5625 24.3125 C14.89893903 26.96410548 14.89893903 26.96410548 14 30 C13.34 30 12.68 30 12 30 C12.495 31.485 12.495 31.485 13 33 C12.67 33.99 12.34 34.98 12 36 C11.96079185 37.99961564 11.95556653 40.00049364 12 42 C15.35316742 43.11772247 17.59612776 42.85096806 21 42 C21.763125 41.814375 22.52625 41.62875 23.3125 41.4375 C23.869375 41.293125 24.42625 41.14875 25 41 C25 41.66 25 42.32 25 43 C27.97 43.66 30.94 44.32 34 45 C34 44.34 34 43.68 34 43 C35.98 42.34 37.96 41.68 40 41 C40.495 42.98 40.495 42.98 41 45 C39.515 45.495 39.515 45.495 38 46 C36.83046584 48.42383077 36.83046584 48.42383077 36 51 C35.505 51.99 35.505 51.99 35 53 C34.34 53 33.68 53 33 53 C33.495 55.475 33.495 55.475 34 58 C32.68 58.33 31.36 58.66 30 59 C30 59.66 30 60.32 30 61 C29.34 61 28.68 61 28 61 C28 61.66 28 62.32 28 63 C28.66 63.33 29.32 63.66 30 64 C30.66 64.66 31.32 65.32 32 66 C32.66 66 33.32 66 34 66 C34.33 66.99 34.66 67.98 35 69 C34.41992188 69.04898438 33.83984375 69.09796875 33.2421875 69.1484375 C27.79608452 69.66968168 22.94930231 70.52534885 18 73 C17.67702888 75.97308574 17.67702888 75.97308574 19.375 77.625 C20.96717339 79.08206652 20.96717339 79.08206652 23 80 C23.33 80.99 23.66 81.98 24 83 C25.97194115 84.97194115 27.50904533 85.832365 30 87 C30.66 87.33 31.32 87.66 32 88 C32 88.99 32 89.98 32 91 C27.73924812 91.19817451 24.87897772 90.73533214 21 89 C17.00854774 87.62363715 13.17729667 87.73477481 9 88 C6.990755 89.33358994 6.990755 89.33358994 6 91 C5.0925 90.34 4.185 89.68 3.25 89 C0.06824185 86.65060172 0.06824185 86.65060172 -4 87 C-4 86.34 -4 85.68 -4 85 C-4.99 85 -5.98 85 -7 85 C-7.33 85.66 -7.66 86.32 -8 87 C-8.66 87.66 -9.32 88.32 -10 89 C-10 89.66 -10 90.32 -10 91 C-10.66 91 -11.32 91 -12 91 C-12.33 91.66 -12.66 92.32 -13 93 C-13.64834654 91.730447 -14.29357815 90.45930294 -14.9375 89.1875 C-15.29714844 88.47980469 -15.65679687 87.77210938 -16.02734375 87.04296875 C-17 85 -17 85 -18 82 C-18.268125 82.53625 -18.53625 83.0725 -18.8125 83.625 C-19.69170616 85.38341232 -20.59061154 87.13200545 -21.5 88.875 C-22.94547638 91.88640913 -24.00478522 94.81531271 -25 98 C-25.66666667 100 -26.33333333 102 -27 104 C-28.65 104 -30.3 104 -32 104 C-30.85242909 98.88006823 -29.53036118 94.6389955 -27 90 C-25.4874941 87.21380493 -25 86.2477554 -25 83 C-28.0831351 84.19899698 -31.06279492 85.47700477 -34 87 C-33.67 84.36 -33.34 81.72 -33 79 C-36.27301919 76.03090402 -38.38065762 75.65645206 -42.75 75.8125 C-43.73484375 75.83957031 -44.7196875 75.86664063 -45.734375 75.89453125 C-46.85585938 75.94673828 -46.85585938 75.94673828 -48 76 C-48 74.35 -48 72.7 -48 71 C-48.55429687 70.88269531 -49.10859375 70.76539063 -49.6796875 70.64453125 C-52.32726678 69.90909256 -54.6499432 68.88069903 -57.125 67.6875 C-58.42824219 67.07455078 -58.42824219 67.07455078 -59.7578125 66.44921875 C-62.22474736 64.85473646 -62.97207624 63.70840587 -64 61 C-63.01 60.505 -63.01 60.505 -62 60 C-62 60.66 -62 61.32 -62 62 C-60.515 61.505 -60.515 61.505 -59 61 C-59 61.66 -59 62.32 -59 63 C-58.01 63 -57.02 63 -56 63 C-56 62.34 -56 61.68 -56 61 C-53.03 59.68 -50.06 58.36 -47 57 C-49.09420973 52.81158054 -49.15826316 52.6948839 -53 51 C-54.34275169 50.01268258 -55.67732273 49.01405257 -57 48 C-57.66 47.67 -58.32 47.34 -59 47 C-57.865625 46.71125 -56.73125 46.4225 -55.5625 46.125 C-54.386875 45.75375 -53.21125 45.3825 -52 45 C-51.67 44.34 -51.34 43.68 -51 43 C-51.66 42.67 -52.32 42.34 -53 42 C-55 40 -55 40 -57 37 C-56.01 37 -55.02 37 -54 37 C-53.67 36.01 -53.34 35.02 -53 34 C-53.66 34 -54.32 34 -55 34 C-55.66 32.02 -56.32 30.04 -57 28 C-57.66 28 -58.32 28 -59 28 C-58.67 26.35 -58.34 24.7 -58 23 C-57.0925 23.474375 -56.185 23.94875 -55.25 24.4375 C-52.73572051 25.64628821 -50.70431791 26.47993886 -48 27 C-48 27.66 -48 28.32 -48 29 C-43.2102679 29.23428313 -43.2102679 29.23428313 -39 27 C-37.0625 27.8125 -37.0625 27.8125 -35 29 C-34.67 29.99 -34.34 30.98 -34 32 C-31.98491642 32.73323796 -31.98491642 32.73323796 -30 33 C-30 33.66 -30 34.32 -30 35 C-26.88667752 34.33131686 -26.88667752 34.33131686 -25.8125 31.9375 C-25.544375 31.298125 -25.27625 30.65875 -25 30 C-24.34 30 -23.68 30 -23 30 C-23 25.05 -23 20.1 -23 15 C-22.01 15 -21.02 15 -20 15 C-19.505 16.485 -19.505 16.485 -19 18 C-17.35 18 -15.7 18 -14 18 C-14 17.01 -14 16.02 -14 15 C-13.34 15 -12.68 15 -12 15 C-11.67 14.01 -11.34 13.02 -11 12 C-9.24514363 11.02507979 -7.48895327 10.0522373 -5.71875 9.10546875 C-2.31340879 6.9152152 -1.23282231 3.69846694 0 0 Z M-19 78 C-18 80 -18 80 -18 80 Z M-22 79 C-21 81 -21 81 -21 81 Z " fill="#DE9422" transform="translate(407,184)"/>
<path d="M0 0 C3.96 0 7.92 0 12 0 C12.598125 1.69125 13.19625 3.3825 13.8125 5.125 C14.95094672 8.27483668 16.10193949 11.19995822 17.625 14.1875 C18.8150764 16.62174717 19.45324926 18.58047356 20.0625 21.1875 C20.78052807 25.03909286 20.78052807 25.03909286 23 28 C23.309375 29.093125 23.61875 30.18625 23.9375 31.3125 C24.86874399 34.96509956 24.86874399 34.96509956 26.5 38 C28.13576374 41.27152747 28.99674919 44.48862217 30 48 C30.515625 49.03125 31.03125 50.0625 31.5625 51.125 C33 54 33 54 34 59 C29.71 58.67 25.42 58.34 21 58 C20.71125 56.96875 20.4225 55.9375 20.125 54.875 C19.42971615 52.43157389 18.67922113 50.03766339 17.875 47.625 C17 45 17 45 17 44 C9.74 44 2.48 44 -5 44 C-5.33 45.98 -5.66 47.96 -6 50 C-6.62225605 51.68375165 -7.27544365 53.35767228 -8 55 C-8.66 55 -9.32 55 -10 55 C-9.67 55.99 -9.34 56.98 -9 58 C-10.92257175 59.92257175 -13.78085108 59.12908424 -16.33874512 59.13894653 C-17.22727173 59.1369223 -18.11579834 59.13489807 -19.03125 59.1328125 C-19.93750122 59.13376923 -20.84375244 59.13472595 -21.77746582 59.13571167 C-23.69751047 59.13639353 -25.61755741 59.13453882 -27.53759766 59.13037109 C-30.48735704 59.12502292 -33.43696414 59.13031588 -36.38671875 59.13671875 C-38.24739617 59.13605797 -40.1080735 59.13477681 -41.96875 59.1328125 C-43.30153992 59.13584885 -43.30153992 59.13584885 -44.66125488 59.13894653 C-50.88505012 59.11494988 -50.88505012 59.11494988 -52 58 C-52.09370624 56.22008076 -52.11744271 54.43643261 -52.11352539 52.65405273 C-52.11344986 51.5129454 -52.11337433 50.37183807 -52.11329651 49.19615173 C-52.10813522 47.9545076 -52.10297394 46.71286346 -52.09765625 45.43359375 C-52.0962413 44.16983414 -52.09482635 42.90607452 -52.09336853 41.60401917 C-52.08870582 38.23875111 -52.0797148 34.8735501 -52.06866455 31.50830078 C-52.05844846 28.0765033 -52.05387049 24.64469891 -52.04882812 21.21289062 C-52.0377738 14.47524176 -52.0210171 7.73762475 -52 1 C-48.7 1 -45.4 1 -42 1 C-42 17.17 -42 33.34 -42 50 C-34.08 49.67 -26.16 49.34 -18 49 C-17.34 46.69 -16.68 44.38 -16 42 C-15.34 41.01 -14.68 40.02 -14 39 C-13.835 38.175 -13.67 37.35 -13.5 36.5 C-13 34 -13 34 -11 31 C-10.835 30.175 -10.67 29.35 -10.5 28.5 C-10 26 -10 26 -8 23 C-6.85516583 20.44095893 -6.02525898 18.13260965 -5.5 15.375 C-5 13 -5 13 -3 10 C-2.835 9.175 -2.67 8.35 -2.5 7.5 C-2 5 -2 5 0 2 C0 1.34 0 0.68 0 0 Z M4 17 C2.98888907 20.04913228 2.98888907 20.04913228 4 23 C3.01 23.495 3.01 23.495 2 24 C2.33 24.66 2.66 25.32 3 26 C2.01 26.495 2.01 26.495 1 27 C-0.24714403 29.40952023 -0.24714403 29.40952023 -1 32 C-0.67 32.66 -0.34 33.32 0 34 C-0.66 34.33 -1.32 34.66 -2 35 C3.28 35 8.56 35 14 35 C13.67 33.68 13.34 32.36 13 31 C12.34 31 11.68 31 11 31 C11.33 30.01 11.66 29.02 12 28 C11.34 28 10.68 28 10 28 C10.33 27.01 10.66 26.02 11 25 C10.67 24.34 10.34 23.68 10 23 C9.34 23 8.68 23 8 23 C8.33 22.01 8.66 21.02 9 20 C8.34 20 7.68 20 7 20 C7.33 19.01 7.66 18.02 8 17 C6.68 17 5.36 17 4 17 Z " fill="#2D0067" transform="translate(104,213)"/>
<path d="M0 0 C8.91 0 17.82 0 27 0 C27 0.66 27 1.32 27 2 C27.99 1.67 28.98 1.34 30 1 C31.875 2.1875 31.875 2.1875 34 4 C34.886875 4.598125 35.77375 5.19625 36.6875 5.8125 C40.1794925 9.11573615 39.90372729 11.91409124 40.1171875 16.5390625 C40.24967373 21.64714252 40.24967373 21.64714252 40 24 C39.34 24.66 38.68 25.32 38 26 C37.67 26.66 37.34 27.32 37 28 C36.54625 28.433125 36.0925 28.86625 35.625 29.3125 C33.66808635 31.34467956 32.38833015 33.5538945 31 36 C31.66 36 32.32 36 33 36 C34.23681641 37.52880859 34.23681641 37.52880859 35.6015625 39.6484375 C36.09140625 40.40640625 36.58125 41.164375 37.0859375 41.9453125 C37.59382813 42.74710938 38.10171875 43.54890625 38.625 44.375 C39.140625 45.1690625 39.65625 45.963125 40.1875 46.78125 C44 52.73197751 44 52.73197751 44 55 C44.66 55.66 45.32 56.32 46 57 C43.39248892 59.60751108 39.20406403 59.37655079 35.76171875 59.42578125 C30.9388506 58.34381631 28.9890473 54.45400284 26.42260742 50.53564453 C25.22903038 48.56153327 24.0659018 46.56867327 22.93481445 44.55810547 C22.39171631 43.61209473 21.84861816 42.66608398 21.2890625 41.69140625 C20.82193848 40.81685791 20.35481445 39.94230957 19.87353516 39.04125977 C17.66024593 36.19706646 17.66024593 36.19706646 11 36 C11 43.26 11 50.52 11 58 C7.7 58 4.4 58 1 58 C0.505 29.29 0.505 29.29 0 0 Z M11 9 C11 14.94 11 20.88 11 27 C14.96 27 18.92 27 23 27 C23.33 26.34 23.66 25.68 24 25 C26.0625 24.375 26.0625 24.375 28 24 C28.58715554 20.65576628 29.04804291 17.40037019 29 14 C27.14178944 11.37287472 25.82670323 10.41335162 23 9 C20.95944995 8.92934383 18.91665743 8.91578024 16.875 8.9375 C14.93625 8.958125 12.9975 8.97875 11 9 Z " fill="#2D0066" transform="translate(192,213)"/>
<path d="M0 0 C27 0 27 0 34 3 C35.4375 5.1875 35.4375 5.1875 36 7 C36.66 7 37.32 7 38 7 C39.66070538 10.64561221 40.29580129 13.56037526 40.3125 17.5625 C40.32925781 18.49191406 40.34601563 19.42132813 40.36328125 20.37890625 C39.94103444 23.42543971 38.97405978 24.69526015 37 27 C36.690625 27.721875 36.38125 28.44375 36.0625 29.1875 C35 31 35 31 32.875 31.75 C31.946875 31.87375 31.946875 31.87375 31 32 C32.56910949 36.31505111 34.69803928 40.04350501 37 44 C37.37125 44.763125 37.7425 45.52625 38.125 46.3125 C39.33927426 48.65431465 40.65108148 49.82554074 43 51 C43.33 51.99 43.66 52.98 44 54 C44.66 54.99 45.32 55.98 46 57 C44.26780072 58.73219928 41.97973192 58.21291761 39.625 58.25 C38.64789063 58.27578125 37.67078125 58.3015625 36.6640625 58.328125 C34 58 34 58 32.24609375 56.609375 C31.83488281 56.07828125 31.42367188 55.5471875 31 55 C30.484375 54.34 29.96875 53.68 29.4375 53 C26.154415 48.43222956 23.12020819 43.68031229 20 39 C17.63333333 36.23333333 17.63333333 36.23333333 11 36 C11 43.59 11 51.18 11 59 C7.7 58.67 4.4 58.34 1 58 C0.505 29.29 0.505 29.29 0 0 Z M11 9 C11 14.94 11 20.88 11 27 C14.63 27 18.26 27 22 27 C22 26.34 22 25.68 22 25 C22.598125 24.71125 23.19625 24.4225 23.8125 24.125 C26.19327792 22.95257974 26.19327792 22.95257974 29 21 C29.75102535 17.62816458 29.75102535 17.62816458 29 14 C26.86167671 11.20830015 26.11997179 10.26855996 23 9 C18.90107443 8.59323639 15.13818694 8.77010073 11 9 Z " fill="#2F0068" transform="translate(303,213)"/>
<path d="M0 0 C3.63 0 7.26 0 11 0 C11.01401855 1.86918091 11.01401855 1.86918091 11.02832031 3.77612305 C11.06824865 8.40766908 11.13401563 13.03855287 11.20751953 17.66967773 C11.23571261 19.67252076 11.25693542 21.6754747 11.27099609 23.6784668 C11.29244854 26.56096107 11.33911056 29.44212409 11.390625 32.32421875 C11.39185364 33.21711105 11.39308228 34.11000336 11.39434814 35.029953 C11.51882078 40.33551949 12.08431365 43.09234147 16 47 C16.33 47.66 16.66 48.32 17 49 C18.32 49 19.64 49 21 49 C21 49.66 21 50.32 21 51 C23.64 51 26.28 51 29 51 C29 50.34 29 49.68 29 49 C29.5775 48.773125 30.155 48.54625 30.75 48.3125 C33.55338976 46.67718931 35.00442154 44.52773272 37 42 C37.66 42 38.32 42 39 42 C38.505 21.21 38.505 21.21 38 0 C41.96 0 45.92 0 50 0 C49.90644749 6.33571069 49.80034872 12.67104005 49.68261719 19.00634766 C49.64433398 21.16156253 49.60947996 23.31684116 49.578125 25.47216797 C49.5324605 28.57021876 49.47446788 31.66783091 49.4140625 34.765625 C49.39673569 36.21113739 49.39673569 36.21113739 49.37905884 37.68585205 C49.35918915 38.58648376 49.33931946 39.48711548 49.31884766 40.41503906 C49.30552399 41.20557678 49.29220032 41.9961145 49.2784729 42.81060791 C48.57392355 48.34987142 44.76189354 51.23810646 41 55 C40.5875 55.53625 40.175 56.0725 39.75 56.625 C33.94123313 61.18903111 24.95789581 60.46896409 18 60 C10.78794838 58.85174849 6.98176719 55.13927602 2.26953125 49.9140625 C-0.95576567 45.05130715 -0.12928223 38.71073353 -0.09765625 33.10546875 C-0.0962413 32.15811356 -0.09482635 31.21075836 -0.09336853 30.23469543 C-0.08778611 27.21893105 -0.07523682 24.20324182 -0.0625 21.1875 C-0.05748273 19.13867295 -0.05292022 17.08984473 -0.04882812 15.04101562 C-0.03782243 10.02731494 -0.02056988 5.0136702 0 0 Z " fill="#2E0067" transform="translate(136,213)"/>
<path d="M0 0 C12.54 0 25.08 0 38 0 C37.67 2.97 37.34 5.94 37 9 C28.42 9 19.84 9 11 9 C11 14.28 11 19.56 11 25 C17.6 25 24.2 25 31 25 C31 27.64 31 30.28 31 33 C24.4 33 17.8 33 11 33 C11 38.61 11 44.22 11 50 C19.58 50 28.16 50 37 50 C37 52.64 37 55.28 37 58 C25.12 58 13.24 58 1 58 C0.505 29.29 0.505 29.29 0 0 Z " fill="#30006C" transform="translate(260,213)"/>
<path d="M0 0 C0.66 0 1.32 0 2 0 C2.07347656 0.90492188 2.07347656 0.90492188 2.1484375 1.828125 C2.22320312 2.62734375 2.29796875 3.4265625 2.375 4.25 C2.44460938 5.03890625 2.51421875 5.8278125 2.5859375 6.640625 C3.02541008 9.14478952 3.61427885 10.86957156 5 13 C5.99 13.33 6.98 13.66 8 14 C7.95875 14.721875 7.9175 15.44375 7.875 16.1875 C8.00921305 19.20729369 8.75170619 21.26935729 10 24 C10.99 24 11.98 24 13 24 C13.495 22.515 13.495 22.515 14 21 C15.32 21.33 16.64 21.66 18 22 C17.525625 22.763125 17.05125 23.52625 16.5625 24.3125 C14.89893903 26.96410548 14.89893903 26.96410548 14 30 C13.34 30 12.68 30 12 30 C12.495 31.485 12.495 31.485 13 33 C12.34 33 11.68 33 11 33 C10.34 36.3 9.68 39.6 9 43 C7 42.33333333 5 41.66666667 3 41 C2.67 41.99 2.34 42.98 2 44 C1.34 44 0.68 44 0 44 C0 44.66 0 45.32 0 46 C-2.31 46 -4.62 46 -7 46 C-6.835 45.195625 -6.67 44.39125 -6.5 43.5625 C-5.96808161 41.2715557 -5.96808161 41.2715557 -6 40 C-6.9793879 38.97980427 -7.97895449 37.97850195 -9 37 C-9.33 37.66 -9.66 38.32 -10 39 C-10.66 38.67 -11.32 38.34 -12 38 C-12.33 38.99 -12.66 39.98 -13 41 C-12.01 41 -11.02 41 -10 41 C-9.875 46.75 -9.875 46.75 -11 49 C-14.35620271 47.61122646 -16.07298728 46.08322035 -18 43 C-18 42.34 -18 41.68 -18 41 C-18.66 40.67 -19.32 40.34 -20 40 C-23.74694603 31.78554141 -23.29261893 23.83275667 -23 15 C-22.01 15 -21.02 15 -20 15 C-19.67 15.99 -19.34 16.98 -19 18 C-17.35 18 -15.7 18 -14 18 C-14 17.01 -14 16.02 -14 15 C-13.34 15 -12.68 15 -12 15 C-11.67 14.01 -11.34 13.02 -11 12 C-9.24514363 11.02507979 -7.48895327 10.0522373 -5.71875 9.10546875 C-2.31340879 6.9152152 -1.23282231 3.69846694 0 0 Z " fill="#FAB913" transform="translate(407,184)"/>
<path d="M0 0 C1.36125 0.7115625 1.36125 0.7115625 2.75 1.4375 C5.26427949 2.64628821 7.29568209 3.47993886 10 4 C10 4.66 10 5.32 10 6 C14.7897321 6.23428313 14.7897321 6.23428313 19 4 C20.9375 4.8125 20.9375 4.8125 23 6 C23.33 6.99 23.66 7.98 24 9 C26.01508358 9.73323796 26.01508358 9.73323796 28 10 C28 10.66 28 11.32 28 12 C30.31 11.34 32.62 10.68 35 10 C34.67 11.32 34.34 12.64 34 14 C34.99 14.33 35.98 14.66 37 15 C35.02 15.99 35.02 15.99 33 17 C33 17.66 33 18.32 33 19 C34.65 18.67 36.3 18.34 38 18 C38.28875 18.804375 38.5775 19.60875 38.875 20.4375 C39.73262568 23.1326468 39.73262568 23.1326468 42 24 C42 24.66 42 25.32 42 26 C42.66 26 43.32 26 44 26 C44.495 27.485 44.495 27.485 45 29 C44 31 44 31 42 32 C41.67 32.99 41.34 33.98 41 35 C38.36 35 35.72 35 33 35 C32.67 34.01 32.34 33.02 32 32 C32.66 31.34 33.32 30.68 34 30 C34.64767793 27.42938689 34.64767793 27.42938689 35 25 C32.9754262 26.93254772 31.57894208 28.63158688 30 31 C28 29.625 28 29.625 26 28 C26 27.34 26 26.68 26 26 C25.01 26 24.02 26 23 26 C23.33 26.99 23.66 27.98 24 29 C22.02 29 20.04 29 18 29 C20.97 29.66 23.94 30.32 27 31 C27 31.99 27 32.98 27 34 C20.375 34.125 20.375 34.125 17 33 C17 34.32 17 35.64 17 37 C15.35 37 13.7 37 12 37 C11.7525 36.071875 11.505 35.14375 11.25 34.1875 C9.88761938 30.71342943 9.1211005 29.8726603 6 28 C5.13375 27.46375 4.2675 26.9275 3.375 26.375 C1.93894712 25.54360097 0.48417579 24.7420879 -1 24 C0.134375 23.71125 1.26875 23.4225 2.4375 23.125 C3.613125 22.75375 4.78875 22.3825 6 22 C6.33 21.34 6.66 20.68 7 20 C6.34 19.67 5.68 19.34 5 19 C3 17 3 17 1 14 C1.99 14 2.98 14 4 14 C4.33 13.01 4.66 12.02 5 11 C4.34 11 3.68 11 3 11 C2.34 9.02 1.68 7.04 1 5 C0.34 5 -0.32 5 -1 5 C-0.67 3.35 -0.34 1.7 0 0 Z " fill="#E79F20" transform="translate(349,207)"/>
<path d="M0 0 C2.15964285 0.46278061 3.96780167 0.98338151 5.9375 2 C8.26985735 3.13083993 10.45252434 3.57542072 13 4 C13 3.34 13 2.68 13 2 C14.98 1.34 16.96 0.68 19 0 C19.495 1.98 19.495 1.98 20 4 C19.01 4.33 18.02 4.66 17 5 C15.83046584 7.42383077 15.83046584 7.42383077 15 10 C14.67 10.66 14.34 11.32 14 12 C13.34 12 12.68 12 12 12 C12.495 14.475 12.495 14.475 13 17 C11.68 17.33 10.36 17.66 9 18 C9 18.66 9 19.32 9 20 C8.34 20 7.68 20 7 20 C6.505 22.475 6.505 22.475 6 25 C-11.71428571 23.28571429 -11.71428571 23.28571429 -15 20 C-16.2065625 20.2475 -16.2065625 20.2475 -17.4375 20.5 C-20 21 -20 21 -23 19 C-23.33 20.32 -23.66 21.64 -24 23 C-24.99 23 -25.98 23 -27 23 C-27.33 22.34 -27.66 21.68 -28 21 C-28.20625 21.78375 -28.4125 22.5675 -28.625 23.375 C-30 26 -30 26 -33.125 27.3125 C-34.07375 27.539375 -35.0225 27.76625 -36 28 C-36 27.34 -36 26.68 -36 26 C-35.34 26 -34.68 26 -34 26 C-33.566875 24.2984375 -33.566875 24.2984375 -33.125 22.5625 C-32.75375 21.386875 -32.3825 20.21125 -32 19 C-31.34 18.67 -30.68 18.34 -30 18 C-30 17.34 -30 16.68 -30 16 C-30.66 16 -31.32 16 -32 16 C-32 15.34 -32 14.68 -32 14 C-30.02 13.67 -28.04 13.34 -26 13 C-27.65 12.67 -29.3 12.34 -31 12 C-30.67 10.68 -30.34 9.36 -30 8 C-23.25 6.875 -23.25 6.875 -21 8 C-20.67 6.68 -20.34 5.36 -20 4 C-16.25 2.875 -16.25 2.875 -14 4 C-11.94304972 3.71478825 -11.94304972 3.71478825 -9.6875 3.125 C-8.48867188 2.83882812 -8.48867188 2.83882812 -7.265625 2.546875 C-6.51796875 2.36640625 -5.7703125 2.1859375 -5 2 C-3.33465333 1.66013333 -1.66870487 1.32297514 0 1 C0 0.67 0 0.34 0 0 Z " fill="#E69F1F" transform="translate(428,225)"/>
<path d="M0 0 C3.96 0 7.92 0 12 0 C11.67 19.14 11.34 38.28 11 58 C6.05 58.495 6.05 58.495 1 59 C0.67 39.53 0.34 20.06 0 0 Z " fill="#2E0069" transform="translate(240,213)"/>
<path d="M0 0 C0.763125 0.639375 1.52625 1.27875 2.3125 1.9375 C4.88246713 4.14232781 4.88246713 4.14232781 8 5 C9.6875 6.5625 9.6875 6.5625 11 8 C9.68 8 8.36 8 7 8 C6.67 8.66 6.34 9.32 6 10 C5.21625 9.67 4.4325 9.34 3.625 9 C1.15667503 7.88133489 1.15667503 7.88133489 -1 8 C-1 8.66 -1 9.32 -1 10 C-0.195625 10.226875 0.60875 10.45375 1.4375 10.6875 C2.283125 11.120625 3.12875 11.55375 4 12 C4.8125 14.625 4.8125 14.625 5 17 C4.01 17 3.02 17 2 17 C1.71125 18.093125 1.4225 19.18625 1.125 20.3125 C0 24 0 24 -2 27 C-2.70626239 28.98636298 -3.36893571 30.98848259 -4 33 C-4.66666667 35 -5.33333333 37 -6 39 C-7.65 39 -9.3 39 -11 39 C-9.85242909 33.88006823 -8.53036118 29.6389955 -6 25 C-4.4874941 22.21380493 -4 21.2477554 -4 18 C-7.0831351 19.19899698 -10.06279492 20.47700477 -13 22 C-12.67 19.36 -12.34 16.72 -12 14 C-15.27301919 11.03090402 -17.38065762 10.65645206 -21.75 10.8125 C-22.73484375 10.83957031 -23.7196875 10.86664063 -24.734375 10.89453125 C-25.48203125 10.92933594 -26.2296875 10.96414063 -27 11 C-27 9.68 -27 8.36 -27 7 C-26.34 7 -25.68 7 -25 7 C-25 6.34 -25 5.68 -25 5 C-23.8553125 5.061875 -23.8553125 5.061875 -22.6875 5.125 C-19.77281584 5.22080824 -19.77281584 5.22080824 -17 3 C-17 3.99 -17 4.98 -17 6 C-16.649375 5.525625 -16.29875 5.05125 -15.9375 4.5625 C-11.62775984 1.0869031 -5.28586264 1.89212525 0 2 C0 1.34 0 0.68 0 0 Z M2 13 C3 15 3 15 3 15 Z M-1 14 C0 16 0 16 0 16 Z " fill="#D9961F" transform="translate(386,249)"/>
<path d="M0 0 C1.65 0.33 3.3 0.66 5 1 C5 1.66 5 2.32 5 3 C10.1562896 3.10312579 14.90354622 2.87012625 20 2 C20.66 2.33 21.32 2.66 22 3 C22.33 2.01 22.66 1.02 23 0 C25 1 25 1 27 3 C27.66 3 28.32 3 29 3 C29.495 4.485 29.495 4.485 30 6 C29.12988281 6.07347656 29.12988281 6.07347656 28.2421875 6.1484375 C22.79608452 6.66968168 17.94930231 7.52534885 13 10 C12.67702888 12.97308574 12.67702888 12.97308574 14.375 14.625 C15.96717339 16.08206652 15.96717339 16.08206652 18 17 C18.495 18.485 18.495 18.485 19 20 C20.97194115 21.97194115 22.50904533 22.832365 25 24 C25.66 24.33 26.32 24.66 27 25 C27 25.99 27 26.98 27 28 C21.06057157 28.27625249 17.1814184 26.68666139 12 24 C13.32 24 14.64 24 16 24 C16 23.01 16 22.02 16 21 C15.34 21 14.68 21 14 21 C14 20.34 14 19.68 14 19 C13.01 18.67 12.02 18.34 11 18 C11.33 17.34 11.66 16.68 12 16 C11.34 15.67 10.68 15.34 10 15 C10.33 14.67 10.66 14.34 11 14 C5.19944247 11.35454777 5.19944247 11.35454777 -1 10 C-1.99 10.495 -1.99 10.495 -3 11 C-3.99 11.495 -3.99 11.495 -5 12 C-5 10.68 -5 9.36 -5 8 C-5.928125 8.185625 -6.85625 8.37125 -7.8125 8.5625 C-11 9 -11 9 -14 8 C-14 7.34 -14 6.68 -14 6 C-10.535 5.505 -10.535 5.505 -7 5 C-6.67 4.01 -6.34 3.02 -6 2 C-4.865625 2.495 -3.73125 2.99 -2.5625 3.5 C0.50937064 5.06467617 0.50937064 5.06467617 2 5 C2 4.01 2 3.02 2 2 C1.34 2 0.68 2 0 2 C0 1.34 0 0.68 0 0 Z " fill="#ECA71E" transform="translate(412,247)"/>
<path d="M0 0 C0.969375 -0.185625 1.93875 -0.37125 2.9375 -0.5625 C6.20547892 -1.02935413 7.29956121 -0.76567152 10 1 C9.01 1.33 8.02 1.66 7 2 C5.77479736 5.00847418 5.77479736 5.00847418 5 8 C4.34 8 3.68 8 3 8 C1.66666667 11 1.66666667 11 3 14 C1.56879256 14.55808089 0.12969645 15.09596462 -1.3125 15.625 C-2.11300781 15.92664063 -2.91351563 16.22828125 -3.73828125 16.5390625 C-4.48464844 16.69117188 -5.23101562 16.84328125 -6 17 C-6.99 16.34 -7.98 15.68 -9 15 C-9.33 16.32 -9.66 17.64 -10 19 C-10.99 19 -11.98 19 -13 19 C-13.33 18.34 -13.66 17.68 -14 17 C-14.20625 17.78375 -14.4125 18.5675 -14.625 19.375 C-16 22 -16 22 -19.125 23.3125 C-20.07375 23.539375 -21.0225 23.76625 -22 24 C-22 23.34 -22 22.68 -22 22 C-21.34 22 -20.68 22 -20 22 C-19.566875 20.2984375 -19.566875 20.2984375 -19.125 18.5625 C-18.75375 17.386875 -18.3825 16.21125 -18 15 C-17.34 14.67 -16.68 14.34 -16 14 C-16 13.34 -16 12.68 -16 12 C-16.66 12 -17.32 12 -18 12 C-18 11.34 -18 10.68 -18 10 C-16.02 9.67 -14.04 9.34 -12 9 C-13.65 8.67 -15.3 8.34 -17 8 C-16.67 6.68 -16.34 5.36 -16 4 C-9.25 2.875 -9.25 2.875 -7 4 C-6.896875 3.360625 -6.79375 2.72125 -6.6875 2.0625 C-6.460625 1.381875 -6.23375 0.70125 -6 0 C-3 -1 -3 -1 0 0 Z " fill="#EFA81C" transform="translate(414,229)"/>
<path d="M0 0 C1.52299523 2.93720508 2.80100302 5.9168649 4 9 C4.99 9 5.98 9 7 9 C7.33 8.01 7.66 7.02 8 6 C9.32 6.33 10.64 6.66 12 7 C11.525625 7.763125 11.05125 8.52625 10.5625 9.3125 C8.89893903 11.96410548 8.89893903 11.96410548 8 15 C7.34 15 6.68 15 6 15 C6.33 15.99 6.66 16.98 7 18 C6.34 18 5.68 18 5 18 C4.34 21.3 3.68 24.6 3 28 C1 27.33333333 -1 26.66666667 -3 26 C-3.33 26.99 -3.66 27.98 -4 29 C-4.66 29 -5.32 29 -6 29 C-6.33 27.68 -6.66 26.36 -7 25 C-6.34 24.67 -5.68 24.34 -5 24 C-4.67 23.01 -4.34 22.02 -4 21 C-3.67 21.99 -3.34 22.98 -3 24 C-2.34 24 -1.68 24 -1 24 C-1.185625 23.21625 -1.37125 22.4325 -1.5625 21.625 C-2 19 -2 19 -1 17 C-3.56490126 18.0992434 -5.12843192 19.12843192 -7.125 21.125 C-7.74375 21.74375 -8.3625 22.3625 -9 23 C-9.66 23 -10.32 23 -11 23 C-10.835 22.4225 -10.67 21.845 -10.5 21.25 C-9.85537969 18.73335631 -9.85537969 18.73335631 -10 15 C-9.67 14.67 -9.34 14.34 -9 14 C-8.92851801 12.64756083 -8.91600546 11.29165633 -8.9375 9.9375 C-8.958125 8.638125 -8.97875 7.33875 -9 6 C-7.02 5.34 -5.04 4.68 -3 4 C-3 3.34 -3 2.68 -3 2 C-2.01 1.34 -1.02 0.68 0 0 Z " fill="#FAB813" transform="translate(413,199)"/>
<path d="M0 0 C0 0.99 0 1.98 0 3 C1.43750191 4.68798827 1.43750191 4.68798827 3 6 C1.68 6.33 0.36 6.66 -1 7 C-1 7.66 -1 8.32 -1 9 C0.65 8.67 2.3 8.34 4 8 C4.28875 8.804375 4.5775 9.60875 4.875 10.4375 C5.73262568 13.1326468 5.73262568 13.1326468 8 14 C8 14.66 8 15.32 8 16 C8.66 16 9.32 16 10 16 C10.33 16.99 10.66 17.98 11 19 C10 21 10 21 8 22 C7.67 22.99 7.34 23.98 7 25 C4.36 25 1.72 25 -1 25 C-1.33 24.01 -1.66 23.02 -2 22 C-1.34 21.34 -0.68 20.68 0 20 C0.64767793 17.42938689 0.64767793 17.42938689 1 15 C-1.0245738 16.93254772 -2.42105792 18.63158688 -4 21 C-6 19.625 -6 19.625 -8 18 C-8 17.34 -8 16.68 -8 16 C-8.66 16 -9.32 16 -10 16 C-10.33 13.69 -10.66 11.38 -11 9 C-10.01 8.34 -9.02 7.68 -8 7 C-7.67 6.01 -7.34 5.02 -7 4 C-5.03384339 2.9349985 -3.03273074 1.93166826 -1 1 C-0.67 0.67 -0.34 0.34 0 0 Z " fill="#EBA31E" transform="translate(383,217)"/>
<path d="M0 0 C0.66 0 1.32 0 2 0 C2.07347656 0.90492188 2.07347656 0.90492188 2.1484375 1.828125 C2.22320312 2.62734375 2.29796875 3.4265625 2.375 4.25 C2.44460938 5.03890625 2.51421875 5.8278125 2.5859375 6.640625 C3.02541008 9.14478952 3.61427885 10.86957156 5 13 C5.99 13.33 6.98 13.66 8 14 C7.67 14.66 7.34 15.32 7 16 C4.9375 16.625 4.9375 16.625 3 17 C3 17.66 3 18.32 3 19 C2.195625 19.268125 1.39125 19.53625 0.5625 19.8125 C-0.283125 20.204375 -1.12875 20.59625 -2 21 C-2.33 21.99 -2.66 22.98 -3 24 C-2.34 24.33 -1.68 24.66 -1 25 C-1.66 25 -2.32 25 -3 25 C-2.67 25.99 -2.34 26.98 -2 28 C-1.01 28.33 -0.02 28.66 1 29 C-1.31 29.33 -3.62 29.66 -6 30 C-7.66666667 26.66666667 -9.33333333 23.33333333 -11 20 C-10.01 20 -9.02 20 -8 20 C-7.34 20.99 -6.68 21.98 -6 23 C-6 21.35 -6 19.7 -6 18 C-5.01 18.33 -4.02 18.66 -3 19 C-3 18.34 -3 17.68 -3 17 C-4.76529595 15.78309467 -4.76529595 15.78309467 -7 15 C-9.08333333 15.83333333 -9.08333333 15.83333333 -11 17 C-11.99 17 -12.98 17 -14 17 C-14 16.34 -14 15.68 -14 15 C-13.34 15 -12.68 15 -12 15 C-11.67 14.01 -11.34 13.02 -11 12 C-9.24514363 11.02507979 -7.48895327 10.0522373 -5.71875 9.10546875 C-2.31340879 6.9152152 -1.23282231 3.69846694 0 0 Z M-9 29 C-7.515 29.99 -7.515 29.99 -6 31 C-6.99 31 -7.98 31 -9 31 C-9 30.34 -9 29.68 -9 29 Z " fill="#EFAA1C" transform="translate(407,184)"/>
<path d="M0 0 C3.74817794 0.28288135 6.07469317 1.39982467 9.3125 3.25 C9.3125 4.57 9.3125 5.89 9.3125 7.25 C9.9725 7.58 10.6325 7.91 11.3125 8.25 C11.3125 8.91 11.3125 9.57 11.3125 10.25 C11.9725 10.25 12.6325 10.25 13.3125 10.25 C13.3125 11.24 13.3125 12.23 13.3125 13.25 C12.06533203 13.30607422 12.06533203 13.30607422 10.79296875 13.36328125 C9.16294922 13.46189453 9.16294922 13.46189453 7.5 13.5625 C5.88158203 13.64951172 5.88158203 13.64951172 4.23046875 13.73828125 C1.13752483 14.28068507 0.18227097 14.80289624 -1.6875 17.25 C-2.81338014 16.29270084 -3.9381715 15.33412105 -5.0625 14.375 C-5.68898438 13.84132813 -6.31546875 13.30765625 -6.9609375 12.7578125 C-8.24586651 11.63567993 -9.48121975 10.45628025 -10.6875 9.25 C-10.3575 8.26 -10.0275 7.27 -9.6875 6.25 C-8.3675 6.91 -7.0475 7.57 -5.6875 8.25 C-6.0175 6.93 -6.3475 5.61 -6.6875 4.25 C-5.6975 4.25 -4.7075 4.25 -3.6875 4.25 C-3.6875 3.26 -3.6875 2.27 -3.6875 1.25 C-2.6875 0.25 -2.6875 0.25 0 0 Z " fill="#E79F20" transform="translate(414.6875,257.75)"/>
<path d="M0 0 C5.94 0.99 5.94 0.99 12 2 C11 4 11 4 10 5 C10.99 5.66 11.98 6.32 13 7 C12.01 8.485 12.01 8.485 11 10 C13.97 10.66 16.94 11.32 20 12 C20 12.99 20 13.98 20 15 C13.375 15.125 13.375 15.125 10 14 C10 15.32 10 16.64 10 18 C8.35 18 6.7 18 5 18 C4.7525 17.071875 4.505 16.14375 4.25 15.1875 C2.88761938 11.71342943 2.1211005 10.8726603 -1 9 C-2.299375 8.195625 -2.299375 8.195625 -3.625 7.375 C-5.06105288 6.54360097 -6.51582421 5.7420879 -8 5 C-6.865625 4.731875 -5.73125 4.46375 -4.5625 4.1875 C-3.386875 3.795625 -2.21125 3.40375 -1 3 C-0.67 2.01 -0.34 1.02 0 0 Z " fill="#F5B718" transform="translate(356,226)"/>
<path d="M0 0 C1.33333333 1.33333333 2.66666667 2.66666667 4 4 C7.56592619 3.83582968 7.56592619 3.83582968 11 3 C11.33 2.34 11.66 1.68 12 1 C13.875 0.1875 13.875 0.1875 16 0 C17.75 1.3125 17.75 1.3125 19 3 C19 3.66 19 4.32 19 5 C18.34 5 17.68 5 17 5 C17 6.98 17 8.96 17 11 C15.35 9.35 13.7 7.7 12 6 C12.99 7.6396875 12.99 7.6396875 14 9.3125 C15.58464929 11.93707538 16 12.8256378 16 16 C12.7 15.01 9.4 14.02 6 13 C5.67 13.66 5.34 14.32 5 15 C2.03 14.505 2.03 14.505 -1 14 C-1.02685938 11.85423363 -1.04633088 9.70837355 -1.0625 7.5625 C-1.07410156 6.36753906 -1.08570313 5.17257813 -1.09765625 3.94140625 C-1 1 -1 1 0 0 Z " fill="#DAB112" transform="translate(385,198)"/>
<path d="M0 0 C1.65 0 3.3 0 5 0 C7.53309233 4.64203897 9.46515599 8.65155992 10 14 C8.35 14 6.7 14 5 14 C5 13.34 5 12.68 5 12 C4.443125 12.144375 3.88625 12.28875 3.3125 12.4375 C-2.67674292 13.89434287 -7.84363206 14 -14 14 C-14 9.71 -14 5.42 -14 1 C-13.01 1 -12.02 1 -11 1 C-11 4.3 -11 7.6 -11 11 C-8.36 10.67 -5.72 10.34 -3 10 C-2.690625 8.906875 -2.38125 7.81375 -2.0625 6.6875 C-1.41662103 4.44592006 -0.7376883 2.2130649 0 0 Z M2 6 C2.66 6.66 3.32 7.32 4 8 C4 7.34 4 6.68 4 6 C3.34 6 2.68 6 2 6 Z " fill="#181516" transform="translate(166,290)"/>
<path d="M0 0 C1.65 0 3.3 0 5 0 C5.66 1.32 6.32 2.64 7 4 C7 3.34 7 2.68 7 2 C8.65 2.33 10.3 2.66 12 3 C11.67 4.98 11.34 6.96 11 9 C12.32 9.99 13.64 10.98 15 12 C14.67 12.66 14.34 13.32 14 14 C11.525 13.505 11.525 13.505 9 13 C9 12.34 9 11.68 9 11 C8.01 11 7.02 11 6 11 C5.67 11.66 5.34 12.32 5 13 C4.34 13.66 3.68 14.32 3 15 C3 15.66 3 16.32 3 17 C2.34 17 1.68 17 1 17 C0.67 17.66 0.34 18.32 0 19 C-3.32575612 13.4174808 -4.46450943 9.50313209 -4 3 C-3.01 3 -2.02 3 -1 3 C-0.67 3.99 -0.34 4.98 0 6 C0 5.67 0 5.34 0 5 C0 3.33333333 0 1.66666667 0 0 Z " fill="#E59C21" transform="translate(394,258)"/>
<path d="M0 0 C1.32 0.66 2.64 1.32 4 2 C3.67 3.65 3.34 5.3 3 7 C5.31 7 7.62 7 10 7 C10 5.35 10 3.7 10 2 C12.4375 2.6875 12.4375 2.6875 15 4 C15.8125 6.625 15.8125 6.625 16 9 C15.01 9 14.02 9 13 9 C12.71125 10.093125 12.4225 11.18625 12.125 12.3125 C11 16 11 16 9 19 C8.29373761 20.98636298 7.63106429 22.98848259 7 25 C6.33333333 27 5.66666667 29 5 31 C3.35 31 1.7 31 0 31 C1.14757091 25.88006823 2.46963882 21.6389955 5 17 C6.5125059 14.21380493 7 13.2477554 7 10 C3.89656201 11.20689255 0.98806107 12.50596946 -2 14 C-1.34 9.38 -0.68 4.76 0 0 Z M13 5 C14 7 14 7 14 7 Z " fill="#B8881D" transform="translate(375,257)"/>
<path d="M0 0 C4.875 1.75 4.875 1.75 6 4 C5.67 4.66 5.34 5.32 5 6 C5.66 5.67 6.32 5.34 7 5 C7.65555119 2.47266765 7.65555119 2.47266765 8 0 C9.65 0.66 11.3 1.32 13 2 C12.01 5.63 11.02 9.26 10 13 C8.02 13.33 6.04 13.66 4 14 C3.87625 13.360625 3.7525 12.72125 3.625 12.0625 C3.41875 11.381875 3.2125 10.70125 3 10 C2.34 9.67 1.68 9.34 1 9 C1.33 9.99 1.66 10.98 2 12 C1.34 12.66 0.68 13.32 0 14 C-0.99 14 -1.98 14 -3 14 C-3 13.34 -3 12.68 -3 12 C-3.66 11.67 -4.32 11.34 -5 11 C-4.67 10.34 -4.34 9.68 -4 9 C-4.66 8.67 -5.32 8.34 -6 8 C-5.67 7.34 -5.34 6.68 -5 6 C-5.66 5.67 -6.32 5.34 -7 5 C-7 3.68 -7 2.36 -7 1 C-5.0625 1.375 -5.0625 1.375 -3 2 C-2.67 2.66 -2.34 3.32 -2 4 C-2.33 4.66 -2.66 5.32 -3 6 C-2.34 5.67 -1.68 5.34 -1 5 C-0.34444881 2.47266765 -0.34444881 2.47266765 0 0 Z M2 6 C3 8 3 8 3 8 Z M-2 7 C-1 9 -1 9 -1 9 Z M6 7 C7 9 7 9 7 9 Z " fill="#1A1719" transform="translate(59,290)"/>
<path d="M0 0 C2.77141717 -0.08089542 5.54047819 -0.14044062 8.3125 -0.1875 C9.09818359 -0.21263672 9.88386719 -0.23777344 10.69335938 -0.26367188 C11.45068359 -0.27333984 12.20800781 -0.28300781 12.98828125 -0.29296875 C14.03302612 -0.31653442 14.03302612 -0.31653442 15.09887695 -0.34057617 C17.5496367 0.09846452 18.34024299 1.21050537 20 3 C20.66 3 21.32 3 22 3 C22 2.01 22 1.02 22 0 C23.65 0 25.3 0 27 0 C27 0.99 27 1.98 27 3 C26.34 3.66 25.68 4.32 25 5 C23.28239258 7.9300362 22.5566748 10.65995117 22 14 C21.01 14 20.02 14 19 14 C18.87625 12.88625 18.7525 11.7725 18.625 10.625 C18.3534187 6.96896323 18.3534187 6.96896323 16 5 C15.01 4.34 14.02 3.68 13 3 C11.68 3.33 10.36 3.66 9 4 C9 7.3 9 10.6 9 14 C7.68 14 6.36 14 5 14 C5 10.7 5 7.4 5 4 C3.68 3.67 2.36 3.34 1 3 C0.67 2.01 0.34 1.02 0 0 Z " fill="#1C191A" transform="translate(349,290)"/>
<path d="M0 0 C8 4 8 4 8.875 5.8125 C10.19965085 8.38820998 11.89415861 10.03454804 14 12 C13.01 12.99 12.02 13.98 11 15 C11.9590625 15.1546875 11.9590625 15.1546875 12.9375 15.3125 C13.9584375 15.6528125 13.9584375 15.6528125 15 16 C15.33 16.99 15.66 17.98 16 19 C15.21625 18.835 14.4325 18.67 13.625 18.5 C9.85561215 17.78202136 8.34602783 18.21545182 5 20 C4.67 19.01 4.34 18.02 4 17 C3.34 17 2.68 17 2 17 C1.67 16.01 1.34 15.02 1 14 C1.99 14 2.98 14 4 14 C4.33 13.01 4.66 12.02 5 11 C4.34 11 3.68 11 3 11 C2.34 9.02 1.68 7.04 1 5 C0.34 5 -0.32 5 -1 5 C-0.67 3.35 -0.34 1.7 0 0 Z " fill="#F7B316" transform="translate(349,207)"/>
<path d="M0 0 C2.97 0.495 2.97 0.495 6 1 C7.375 3.0625 7.375 3.0625 8 5 C8.7138986 2.53155755 8.7138986 2.53155755 9 0 C10.65 0 12.3 0 14 0 C13.67 4.62 13.34 9.24 13 14 C11.35 14 9.7 14 8 14 C7.34 12.35 6.68 10.7 6 9 C5.67 9 5.34 9 5 9 C4.67 10.65 4.34 12.3 4 14 C3.01 14 2.02 14 1 14 C0.67 9.38 0.34 4.76 0 0 Z " fill="#1A1718" transform="translate(266,290)"/>
<path d="M0 0 C3.3 0.33 6.6 0.66 10 1 C10.95024979 4.69541586 10.95024979 7.30458414 10 11 C10.66 11 11.32 11 12 11 C12 11.99 12 12.98 12 14 C9.0625 13.625 9.0625 13.625 6 13 C5.67 12.34 5.34 11.68 5 11 C4.67 11.99 4.34 12.98 4 14 C2.68 14 1.36 14 0 14 C0 9.38 0 4.76 0 0 Z M4 3 C4.33 3.99 4.66 4.98 5 6 C5.33 5.01 5.66 4.02 6 3 C5.34 3 4.68 3 4 3 Z " fill="#191517" transform="translate(106,290)"/>
<path d="M0 0 C8.75 -0.125 8.75 -0.125 11 1 C10.98839844 1.77085937 10.97679687 2.54171875 10.96484375 3.3359375 C10.95582031 4.33882813 10.94679688 5.34171875 10.9375 6.375 C10.92589844 7.37273437 10.91429687 8.37046875 10.90234375 9.3984375 C10.81993398 11.98432453 10.81993398 11.98432453 12 14 C9.625 14.125 9.625 14.125 7 14 C6.34 13.34 5.68 12.68 5 12 C4.67 12.66 4.34 13.32 4 14 C3.01 14 2.02 14 1 14 C0.67 9.38 0.34 4.76 0 0 Z M4 3 C4.33 3.99 4.66 4.98 5 6 C5.66 5.01 6.32 4.02 7 3 C6.01 3 5.02 3 4 3 Z " fill="#171415" transform="translate(317,290)"/>
<path d="M0 0 C9.625 -0.25 9.625 -0.25 13 2 C13.42033174 7.21211352 13.38110152 9.23779696 11 14 C7.37 14 3.74 14 0 14 C0 9.38 0 4.76 0 0 Z M3 3 C3 5.97 3 8.94 3 12 C6.93075644 11.42547254 6.93075644 11.42547254 10 9 C10.29761378 6.0517724 10.29761378 6.0517724 8.75 4.3125 C6.83125 2.6 6.83125 2.6 3 3 Z " fill="#151314" transform="translate(128,290)"/>
<path d="M0 0 C3.3 0.33 6.6 0.66 10 1 C10.73790757 3.86964055 11.0506599 5.75795825 10.4375 8.6875 C10.293125 9.450625 10.14875 10.21375 10 11 C10.66 11.66 11.32 12.32 12 13 C10.125 13.625 10.125 13.625 8 14 C7 13 6 12 5 11 C4.67 11.99 4.34 12.98 4 14 C2.68 14 1.36 14 0 14 C0 9.38 0 4.76 0 0 Z M3 3 C3.99 4.485 3.99 4.485 5 6 C5.33 5.01 5.66 4.02 6 3 C5.01 3 4.02 3 3 3 Z " fill="#171517" transform="translate(194,290)"/>
<path d="M0 0 C0.75 2.375 0.75 2.375 1 5 C0.01 6.485 0.01 6.485 -1 8 C-0.34 8 0.32 8 1 8 C1.33 9.65 1.66 11.3 2 13 C-0.3125 13.3125 -0.3125 13.3125 -3 13 C-4.8125 10.5 -4.8125 10.5 -6 8 C-6 9.65 -6 11.3 -6 13 C-6.99 13 -7.98 13 -9 13 C-9 8.71 -9 4.42 -9 0 C-2.25 -1.125 -2.25 -1.125 0 0 Z M-6 2 C-6 2.99 -6 3.98 -6 5 C-5.34 5 -4.68 5 -4 5 C-3.67 4.01 -3.34 3.02 -3 2 C-3.99 2 -4.98 2 -6 2 Z M-3 3 C-2 5 -2 5 -2 5 Z " fill="#1E1A1B" transform="translate(238,291)"/>
<path d="M0 0 C1.65 0 3.3 0 5 0 C4.67 3.3 4.34 6.6 4 10 C4.66 10 5.32 10 6 10 C6 10.66 6 11.32 6 12 C6.66 12 7.32 12 8 12 C8.96070434 9.11788698 9.10581883 7.30149956 9.0625 4.3125 C9.05347656 3.50425781 9.04445313 2.69601562 9.03515625 1.86328125 C9.02355469 1.24839844 9.01195312 0.63351562 9 0 C10.65 0 12.3 0 14 0 C13.85970581 2.1462026 13.71261836 4.29196218 13.5625 6.4375 C13.48128906 7.63246094 13.40007812 8.82742188 13.31640625 10.05859375 C13 13 13 13 12 14 C10.31391034 14.07205511 8.62499341 14.08386068 6.9375 14.0625 C6.01839844 14.05347656 5.09929687 14.04445313 4.15234375 14.03515625 C3.44207031 14.02355469 2.73179687 14.01195312 2 14 C0.99740493 10.99221479 0.69685358 8.46179353 0.4375 5.3125 C0.35371094 4.31863281 0.26992187 3.32476562 0.18359375 2.30078125 C0.12300781 1.54152344 0.06242188 0.78226562 0 0 Z " fill="#191617" transform="translate(249,290)"/>
<path d="M0 0 C2.375 0.25 2.375 0.25 5 1 C6.3125 3.0625 6.3125 3.0625 7 5 C7.33 4.01 7.66 3.02 8 2 C8.99 1.34 9.98 0.68 11 0 C11.99 0.33 12.98 0.66 14 1 C13.01 3.97 12.02 6.94 11 10 C10.34 10 9.68 10 9 10 C9.33 10.99 9.66 11.98 10 13 C8.02 13.33 6.04 13.66 4 14 C3.32471777 12.42032193 2.66010306 10.83608097 2 9.25 C1.62875 8.36828125 1.2575 7.4865625 0.875 6.578125 C0 4 0 4 0 0 Z M7 6 C8 8 8 8 8 8 Z " fill="#161314" transform="translate(289,290)"/>
<path d="M0 0 C0.66 0 1.32 0 2 0 C2.66 1.32 3.32 2.64 4 4 C3.01 4.495 3.01 4.495 2 5 C1.67 5.99 1.34 6.98 1 8 C4.16115776 6.63016497 4.9927092 6.0109362 7 3 C9.625 1.8125 9.625 1.8125 12 1 C11.67 3.64 11.34 6.28 11 9 C10 9 9 9 8 9 C5.71271266 10.83883881 5.71271266 10.83883881 5.875 13.625 C5.91625 14.40875 5.9575 15.1925 6 16 C3.69 16 1.38 16 -1 16 C-0.835 15.195625 -0.67 14.39125 -0.5 13.5625 C0.03191839 11.2715557 0.03191839 11.2715557 0 10 C-0.495 9.360625 -0.99 8.72125 -1.5 8.0625 C-3 6 -3 6 -3 4 C-2.34 4 -1.68 4 -1 4 C-0.67 2.68 -0.34 1.36 0 0 Z " fill="#EFA81C" transform="translate(401,214)"/>
<path d="M0 0 C3.63 0 7.26 0 11 0 C10.67 0.99 10.34 1.98 10 3 C8.02 3 6.04 3 4 3 C4 3.99 4 4.98 4 6 C5.65 5.67 7.3 5.34 9 5 C9 6.32 9 7.64 9 9 C7.68 9 6.36 9 5 9 C4.67 9.66 4.34 10.32 4 11 C6.31 11 8.62 11 11 11 C10.67 11.99 10.34 12.98 10 14 C7.03 14 4.06 14 1 14 C0.67 9.38 0.34 4.76 0 0 Z " fill="#191617" transform="translate(304,290)"/>
<path d="M0 0 C2.64 0 5.28 0 8 0 C8.33 1.32 8.66 2.64 9 4 C7.68 3.67 6.36 3.34 5 3 C5.33 3.99 5.66 4.98 6 6 C6.99 6 7.98 6 9 6 C10 9 10 9 8.9375 11.6875 C7 14 7 14 3.8125 14.3125 C2.884375 14.209375 1.95625 14.10625 1 14 C0.34 12.68 -0.32 11.36 -1 10 C0.32 10 1.64 10 3 10 C3 10.66 3 11.32 3 12 C3.66 12 4.32 12 5 12 C3.07423885 9.56070254 1.19909405 7.19909405 -1 5 C-0.625 2.375 -0.625 2.375 0 0 Z M3 3 C4 5 4 5 4 5 Z " fill="#191617" transform="translate(331,290)"/>
<path d="M0 0 C0.99 0 1.98 0 3 0 C3.06058594 0.62648438 3.12117187 1.25296875 3.18359375 1.8984375 C3.26738281 2.71570313 3.35117188 3.53296875 3.4375 4.375 C3.55931641 5.59316406 3.55931641 5.59316406 3.68359375 6.8359375 C3.89090114 9.04272805 3.89090114 9.04272805 5 11 C5.66 11 6.32 11 7 11 C8.14814997 8.70370006 8.30769809 6.92301914 8.5625 4.375 C8.64628906 3.55773437 8.73007813 2.74046875 8.81640625 1.8984375 C8.87699219 1.27195312 8.93757812 0.64546875 9 0 C9.99 0 10.98 0 12 0 C12 3.96 12 7.92 12 12 C8.04340734 13.31886422 5.17660573 13.26518132 1 13 C-1.30143236 9.54785147 -1.13833854 8.76520676 -0.625 4.8125 C-0.51414063 3.91144531 -0.40328125 3.01039063 -0.2890625 2.08203125 C-0.19367188 1.39496094 -0.09828125 0.70789063 0 0 Z " fill="#1D191A" transform="translate(178,291)"/>
<path d="M0 0 C0.33 2.31 0.66 4.62 1 7 C0.34 7 -0.32 7 -1 7 C-1.66 6.34 -2.32 5.68 -3 5 C-3 5.66 -3 6.32 -3 7 C-3.99 7.495 -3.99 7.495 -5 8 C-3.35 8.33 -1.7 8.66 0 9 C-0.66 10.65 -1.32 12.3 -2 14 C-5.1173913 12.83097826 -8.16662723 11.52263513 -11.1875 10.125 C-11.86167969 9.81820312 -12.53585937 9.51140625 -13.23046875 9.1953125 C-15.37720303 7.7452006 -16.03368613 6.36870785 -17 4 C-16.34 3.67 -15.68 3.34 -15 3 C-15 3.66 -15 4.32 -15 5 C-14.01 4.67 -13.02 4.34 -12 4 C-12 4.66 -12 5.32 -12 6 C-11.01 6 -10.02 6 -9 6 C-9 5.34 -9 4.68 -9 4 C-7.68872739 3.3309224 -6.3759455 2.66480194 -5.0625 2 C-4.33160156 1.62875 -3.60070312 1.2575 -2.84765625 0.875 C-1 0 -1 0 0 0 Z " fill="#A7861B" transform="translate(360,241)"/>
<path d="M0 0 C0.66 0.33 1.32 0.66 2 1 C1.34 2.65 0.68 4.3 0 6 C0.66 6.33 1.32 6.66 2 7 C0.68 7.33 -0.64 7.66 -2 8 C-1.67 8.66 -1.34 9.32 -1 10 C0.8871875 10.0309375 0.8871875 10.0309375 2.8125 10.0625 C3.52019531 10.07410156 4.22789062 10.08570313 4.95703125 10.09765625 C7.20305461 10.08263217 7.20305461 10.08263217 10 9 C10 9.66 10 10.32 10 11 C9.34 11 8.68 11 8 11 C8 11.66 8 12.32 8 13 C7.01 13.495 7.01 13.495 6 14 C6.20625 14.78375 6.4125 15.5675 6.625 16.375 C6.74875 17.24125 6.8725 18.1075 7 19 C6.34 19.66 5.68 20.32 5 21 C0.87014467 15.75139424 -3.16204304 10.46618113 -7 5 C-6.01 5.33 -5.02 5.66 -4 6 C-2.68 4.02 -1.36 2.04 0 0 Z " fill="#E29921" transform="translate(383,231)"/>
<path d="M0 0 C0.66 0 1.32 0 2 0 C3.28571429 8.42857143 3.28571429 8.42857143 2 13 C2.66 13 3.32 13 4 13 C4 13.99 4 14.98 4 16 C1.21571665 16.77341204 -0.47275102 17.17574966 -3.25 16.25 C-5 15 -5 15 -6 12 C-5.0390625 9.84375 -5.0390625 9.84375 -3.625 7.5 C-2.10234591 4.94806576 -0.94478033 2.83434098 0 0 Z " fill="#F3BD12" transform="translate(407,184)"/>
<path d="M0 0 C2.97 0 5.94 0 9 0 C9 0.66 9 1.32 9 2 C7.02 2 5.04 2 3 2 C3 2.99 3 3.98 3 5 C4.65 5 6.3 5 8 5 C8.33 5.99 8.66 6.98 9 8 C7.35 8 5.7 8 4 8 C3.67 8.66 3.34 9.32 3 10 C5.31 10 7.62 10 10 10 C9.67 10.99 9.34 11.98 9 13 C6.03 13 3.06 13 0 13 C0 8.71 0 4.42 0 0 Z " fill="#191617" transform="translate(216,291)"/>
<path d="M0 0 C4.60853797 0.72008406 8.67237409 2.31295939 13 4 C12.67 5.65 12.34 7.3 12 9 C5.80481527 8.58411954 0.73310689 7.39748106 -5 5 C-4.67 4.01 -4.34 3.02 -4 2 C-2.02 2.66 -0.04 3.32 2 4 C2 3.34 2 2.68 2 2 C1.34 2 0.68 2 0 2 C0 1.34 0 0.68 0 0 Z " fill="#F1AD1B" transform="translate(422,241)"/>
<path d="M0 0 C1.875 0.125 1.875 0.125 4 1 C5.25 4.0625 5.25 4.0625 6 7 C5.34 7 4.68 7 4 7 C3.67 7.99 3.34 8.98 3 10 C3.99 10 4.98 10 6 10 C6.125 15.75 6.125 15.75 5 18 C1.64379729 16.61122646 -0.07298728 15.08322035 -2 12 C-2 11.34 -2 10.68 -2 10 C-2.66 9.67 -3.32 9.34 -4 9 C-4 8.34 -4 7.68 -4 7 C-2.35 7 -0.7 7 1 7 C0.34 6.34 -0.32 5.68 -1 5 C-0.625 2.375 -0.625 2.375 0 0 Z " fill="#F0AA1C" transform="translate(391,215)"/>
<path d="M0 0 C2.4375 0.8125 2.4375 0.8125 5 2 C5.33 2.99 5.66 3.98 6 5 C8.01508358 5.73323796 8.01508358 5.73323796 10 6 C10 6.66 10 7.32 10 8 C11.32 7.67 12.64 7.34 14 7 C14 7.66 14 8.32 14 9 C12.35 9.33 10.7 9.66 9 10 C8.67 11.65 8.34 13.3 8 15 C6.68 14.67 5.36 14.34 4 14 C4 13.01 4 12.02 4 11 C3.505 10.505 3.01 10.01 2.5 9.5 C2.005 9.005 1.51 8.51 1 8 C1 7.01 1 6.02 1 5 C0.05021103 2.84971696 0.05021103 2.84971696 -1 1 C-0.67 0.67 -0.34 0.34 0 0 Z " fill="#D59C1C" transform="translate(367,211)"/>
<path d="M0 0 C0 6.85755598 -3.79957253 14.05634898 -7 20 C-7.33 20.66 -7.66 21.32 -8 22 C-9.32 21.67 -10.64 21.34 -12 21 C-10.44323039 15.93221807 -8.81069676 11.52155565 -6 7 C-5.690625 5.9275 -5.38125 4.855 -5.0625 3.75 C-4.711875 2.8425 -4.36125 1.935 -4 1 C-1.875 0.125 -1.875 0.125 0 0 Z " fill="#77601F" transform="translate(387,266)"/>
<path d="M0 0 C0.763125 0.639375 1.52625 1.27875 2.3125 1.9375 C4.88246713 4.14232781 4.88246713 4.14232781 8 5 C9.6875 6.5625 9.6875 6.5625 11 8 C9.68 8 8.36 8 7 8 C6.67 8.66 6.34 9.32 6 10 C5.21625 9.67 4.4325 9.34 3.625 9 C1.15667503 7.88133489 1.15667503 7.88133489 -1 8 C-1 8.66 -1 9.32 -1 10 C-3 9 -3 9 -4 6 C-3.67 5.67 -3.34 5.34 -3 5 C-4.98 5.33 -6.96 5.66 -9 6 C-9 5.01 -9 4.02 -9 3 C-9.66 2.67 -10.32 2.34 -11 2 C-7.37 2 -3.74 2 0 2 C0 1.34 0 0.68 0 0 Z " fill="#CE8024" transform="translate(386,249)"/>
<path d="M0 0 C0.66 0.66 1.32 1.32 2 2 C2.66 2.33 3.32 2.66 4 3 C4.33 3.99 4.66 4.98 5 6 C6.97194115 7.97194115 8.50904533 8.832365 11 10 C11.66 10.33 12.32 10.66 13 11 C13 11.99 13 12.98 13 14 C7.06057157 14.27625249 3.1814184 12.68666139 -2 10 C-0.68 10 0.64 10 2 10 C2 9.01 2 8.02 2 7 C1.34 7 0.68 7 0 7 C0 6.34 0 5.68 0 5 C-0.99 4.67 -1.98 4.34 -3 4 C-2.67 3.34 -2.34 2.68 -2 2 C-2.66 1.67 -3.32 1.34 -4 1 C-2.125 0.375 -2.125 0.375 0 0 Z " fill="#BD921D" transform="translate(426,261)"/>
<path d="M0 0 C1.65 0.33 3.3 0.66 5 1 C5 1.99 5 2.98 5 4 C7.97 4.495 7.97 4.495 11 5 C11 5.99 11 6.98 11 8 C8.525 7.505 8.525 7.505 6 7 C6 6.34 6 5.68 6 5 C5.01 5 4.02 5 3 5 C2.67 5.66 2.34 6.32 2 7 C1.34 7.66 0.68 8.32 0 9 C0 9.66 0 10.32 0 11 C-0.66 11 -1.32 11 -2 11 C-2.33 11.66 -2.66 12.32 -3 13 C-3.67154933 11.71086513 -4.33708859 10.41859796 -5 9.125 C-5.37125 8.40570313 -5.7425 7.68640625 -6.125 6.9453125 C-7 5 -7 5 -7 3 C-5.8553125 3.2784375 -5.8553125 3.2784375 -4.6875 3.5625 C-1.91032625 4.22819173 -1.91032625 4.22819173 1 3 C0.67 2.01 0.34 1.02 0 0 Z " fill="#CD9D1D" transform="translate(397,264)"/>
<path d="M0 0 C0.99 -0.185625 1.98 -0.37125 3 -0.5625 C6 -1 6 -1 9 1 C7.68 1.33 6.36 1.66 5 2 C5 2.66 5 3.32 5 4 C4.34 4 3.68 4 3 4 C3.33 4.99 3.66 5.98 4 7 C2.7934375 6.7525 2.7934375 6.7525 1.5625 6.5 C-1.92294319 5.81991352 -2.84208653 6.37010918 -6 8 C-6.99 7.34 -7.98 6.68 -9 6 C-8.01 6 -7.02 6 -6 6 C-6 4.02 -6 2.04 -6 0 C-3 -1 -3 -1 0 0 Z " fill="#F1AB1B" transform="translate(414,229)"/>
<path d="M0 0 C0.66 0 1.32 0 2 0 C2 0.66 2 1.32 2 2 C2.99 2.33 3.98 2.66 5 3 C4.34 5.97 3.68 8.94 3 12 C1 11.33333333 -1 10.66666667 -3 10 C-3.33 10.99 -3.66 11.98 -4 13 C-4.66 13 -5.32 13 -6 13 C-6.33 11.68 -6.66 10.36 -7 9 C-6.34 8.67 -5.68 8.34 -5 8 C-4.67 7.01 -4.34 6.02 -4 5 C-3.67 5.99 -3.34 6.98 -3 8 C-2.34 8 -1.68 8 -1 8 C-1.309375 6.8553125 -1.309375 6.8553125 -1.625 5.6875 C-2 3 -2 3 0 0 Z " fill="#FCC70E" transform="translate(413,215)"/>
<path d="M0 0 C2.1875 1.3125 2.1875 1.3125 4 3 C4 3.66 4 4.32 4 5 C3.34 5 2.68 5 2 5 C2 6.98 2 8.96 2 11 C0.35 9.35 -1.3 7.7 -3 6 C-2.01 7.6396875 -2.01 7.6396875 -1 9.3125 C0.58464929 11.93707538 1 12.8256378 1 16 C0.01 15.67 -0.98 15.34 -2 15 C-2.33 13.35 -2.66 11.7 -3 10 C-3.99 9.67 -4.98 9.34 -6 9 C-6.33 7.35 -6.66 5.7 -7 4 C-6.01 3.67 -5.02 3.34 -4 3 C-3.67 2.34 -3.34 1.68 -3 1 C-2.01 0.67 -1.02 0.34 0 0 Z " fill="#FCBF0F" transform="translate(400,198)"/>
<path d="M0 0 C2.97 0.33 5.94 0.66 9 1 C9 1.66 9 2.32 9 3 C7.02 3 5.04 3 3 3 C3 3.99 3 4.98 3 6 C4.65 6 6.3 6 8 6 C8.33 6.99 8.66 7.98 9 9 C7.02 9 5.04 9 3 9 C3 10.65 3 12.3 3 14 C2.01 14 1.02 14 0 14 C0 9.38 0 4.76 0 0 Z " fill="#1D1A1B" transform="translate(94,290)"/>
<path d="M0 0 C1.32 0.33 2.64 0.66 4 1 C3.525625 1.763125 3.05125 2.52625 2.5625 3.3125 C0.89893903 5.96410548 0.89893903 5.96410548 0 9 C-0.66 9 -1.32 9 -2 9 C-1.67 9.99 -1.34 10.98 -1 12 C-1.99 12.33 -2.98 12.66 -4 13 C-4.66 12.67 -5.32 12.34 -6 12 C-6 11.34 -6 10.68 -6 10 C-6.66 10 -7.32 10 -8 10 C-8.33 9.01 -8.66 8.02 -9 7 C-8.01 6.67 -7.02 6.34 -6 6 C-5.67 5.01 -5.34 4.02 -5 3 C-3.68 3 -2.36 3 -1 3 C-0.67 2.01 -0.34 1.02 0 0 Z " fill="#C7A416" transform="translate(421,205)"/>
<path d="M0 0 C0.99 0.66 1.98 1.32 3 2 C2.34 2 1.68 2 1 2 C1 2.66 1 3.32 1 4 C1.66 4.33 2.32 4.66 3 5 C3 8.33333333 3 11.66666667 3 15 C1.35 15 -0.3 15 -2 15 C-2.33 13.68 -2.66 12.36 -3 11 C-3.66 11 -4.32 11 -5 11 C-5 10.34 -5 9.68 -5 9 C-4.34 8.67 -3.68 8.34 -3 8 C-3.99 7.34 -4.98 6.68 -6 6 C-5.34 6 -4.68 6 -4 6 C-3.67 5.34 -3.34 4.68 -3 4 C-2.34 4.33 -1.68 4.66 -1 5 C-0.67 3.35 -0.34 1.7 0 0 Z " fill="#E19921" transform="translate(370,221)"/>
<path d="M0 0 C0.66 0.33 1.32 0.66 2 1 C1 4 1 4 -1 6 C-1.4125 6.495 -1.825 6.99 -2.25 7.5 C-4.60471894 9.51833052 -7.04955976 10.1476506 -10 11 C-10 10.34 -10 9.68 -10 9 C-10.99 8.67 -11.98 8.34 -13 8 C-11.25 6 -11.25 6 -9 4 C-7.68 4 -6.36 4 -5 4 C-5 3.34 -5 2.68 -5 2 C-2.625 0.9375 -2.625 0.9375 0 0 Z " fill="#EEB21A" transform="translate(446,225)"/>
<path d="M0 0 C2.0625 0.4375 2.0625 0.4375 4 1 C4 1.99 4 2.98 4 4 C4.63106429 6.01151741 5.29373761 8.01363702 6 10 C1.375 12.125 1.375 12.125 -2 11 C-1.85957123 9.35369672 -1.71250671 7.70795821 -1.5625 6.0625 C-1.48128906 5.14597656 -1.40007812 4.22945313 -1.31640625 3.28515625 C-1 1 -1 1 0 0 Z " fill="#DB9A2A" transform="translate(380,253)"/>
<path d="M0 0 C2.625 0.9375 2.625 0.9375 5 2 C5.33 1.67 5.66 1.34 6 1 C10.16464926 0.83982118 13.94726192 1.01751804 18 2 C18.33 2.99 18.66 3.98 19 5 C16.525 4.505 16.525 4.505 14 4 C14 4.66 14 5.32 14 6 C13.34 5.67 12.68 5.34 12 5 C12 4.01 12 3.02 12 2 C10.00016466 2.79117904 10.00016466 2.79117904 8 4 C7.67 4.99 7.34 5.98 7 7 C7.66 7.33 8.32 7.66 9 8 C8.34 8.66 7.68 9.32 7 10 C7 9.34 7 8.68 7 8 C6.34 7.67 5.68 7.34 5 7 C5.33 6.34 5.66 5.68 6 5 C5.236875 5.04125 4.47375 5.0825 3.6875 5.125 C1 5 1 5 -2 3 C-2 2.34 -2 1.68 -2 1 C-1.34 0.67 -0.68 0.34 0 0 Z " fill="#D58A24" transform="translate(387,256)"/>
<path d="M0 0 C2.125 0.375 2.125 0.375 4 1 C4.33 2.65 4.66 4.3 5 6 C3.68 6.33 2.36 6.66 1 7 C0.67 6.34 0.34 5.68 0 5 C-0.20625 5.78375 -0.4125 6.5675 -0.625 7.375 C-2 10 -2 10 -5.125 11.3125 C-6.07375 11.539375 -7.0225 11.76625 -8 12 C-8 11.34 -8 10.68 -8 10 C-7.34 10 -6.68 10 -6 10 C-5.71125 8.865625 -5.4225 7.73125 -5.125 6.5625 C-4.75375 5.386875 -4.3825 4.21125 -4 3 C-3.34 2.67 -2.68 2.34 -2 2 C-1.34 1.34 -0.68 0.68 0 0 Z " fill="#E8A01F" transform="translate(400,241)"/>
<path d="M0 0 C0.99 0 1.98 0 3 0 C3.33 3.3 3.66 6.6 4 10 C5.98 10 7.96 10 10 10 C9.67 10.99 9.34 11.98 9 13 C6.03 13 3.06 13 0 13 C0 8.71 0 4.42 0 0 Z " fill="#1F1B1D" transform="translate(82,291)"/>
<path d="M0 0 C0.99 0 1.98 0 3 0 C3 3.3 3 6.6 3 10 C4.98 10 6.96 10 9 10 C9 10.99 9 11.98 9 13 C6.03 13 3.06 13 0 13 C0 8.71 0 4.42 0 0 Z " fill="#1F1C1D" transform="translate(152,291)"/>
<path d="M0 0 C1.32 0 2.64 0 4 0 C4 4.62 4 9.24 4 14 C2.68 14 1.36 14 0 14 C0 9.38 0 4.76 0 0 Z " fill="#161314" transform="translate(208,290)"/>
<path d="M0 0 C2 1 2 1 4 3 C4.66 3 5.32 3 6 3 C6.33 3.99 6.66 4.98 7 6 C6.12988281 6.07347656 6.12988281 6.07347656 5.2421875 6.1484375 C1.4948792 6.50709077 -1.7845647 6.92818823 -5.375 8.125 C-8 9 -8 9 -11 8 C-11 7.34 -11 6.68 -11 6 C-5.29959514 4.05668016 -5.29959514 4.05668016 -2.6875 3.5625 C-2.130625 3.376875 -1.57375 3.19125 -1 3 C-0.67 2.01 -0.34 1.02 0 0 Z " fill="#AD8D1F" transform="translate(435,247)"/>
<path d="M0 0 C3.75 1.0625 3.75 1.0625 6 2 C2.00439392 4.83022097 -1.42737323 3.76210446 -6 3 C-6 2.34 -6 1.68 -6 1 C-7.65 1.33 -9.3 1.66 -11 2 C-10.34 2 -9.68 2 -9 2 C-9 2.99 -9 3.98 -9 5 C-7.68 5.66 -6.36 6.32 -5 7 C-6.65 6.67 -8.3 6.34 -10 6 C-10.33 5.01 -10.66 4.02 -11 3 C-13.00016466 1.79117904 -13.00016466 1.79117904 -15 1 C-10.26840651 -2.15439566 -5.45897942 -0.78396411 0 0 Z " fill="#DE9422" transform="translate(423,247)"/>
<path d="M0 0 C0 0.99 0 1.98 0 3 C-6.625 3.125 -6.625 3.125 -10 2 C-10 3.32 -10 4.64 -10 6 C-11.65 6 -13.3 6 -15 6 C-15.33 5.34 -15.66 4.68 -16 4 C-11.9540509 -2.06892366 -6.43480751 -1.10944957 0 0 Z " fill="#F1AD1B" transform="translate(376,238)"/>
<path d="M0 0 C2.0625 0.4375 2.0625 0.4375 4 1 C3.814375 1.804375 3.62875 2.60875 3.4375 3.4375 C3.2209375 4.7059375 3.2209375 4.7059375 3 6 C3.33 6.33 3.66 6.66 4 7 C4.04080783 8.99958364 4.04254356 11.00045254 4 13 C1.3796346 11.62086032 -0.62218977 10.49279595 -2.4375 8.125 C-3.21683828 5.18083317 -2.36323449 3.65471979 -1 1 C-0.67 0.67 -0.34 0.34 0 0 Z " fill="#F3B019" transform="translate(366,214)"/>
<path d="M0 0 C3 2 3 2 4 5 C4.66 5.33 5.32 5.66 6 6 C6.625 8.5625 6.625 8.5625 7 11 C4.69 10.34 2.38 9.68 0 9 C-0.33 9.66 -0.66 10.32 -1 11 C-3.97 10.505 -3.97 10.505 -7 10 C-7 8.02 -7 6.04 -7 4 C-6.67 4 -6.34 4 -6 4 C-6 5.65 -6 7.3 -6 9 C-3.69 8.34 -1.38 7.68 1 7 C0.67 4.69 0.34 2.38 0 0 Z " fill="#DFA518" transform="translate(391,202)"/>
<path d="M0 0 C1.32 0.33 2.64 0.66 4 1 C4.9659657 3.60810739 5.02770914 4.89420147 4.3125 7.625 C2.81422839 10.33615816 1.94092275 11.10881129 -1 12 C-1.99 11.67 -2.98 11.34 -4 11 C-3.01 10.67 -2.02 10.34 -1 10 C-0.26676204 7.98491642 -0.26676204 7.98491642 0 6 C-0.66 6 -1.32 6 -2 6 C-2 4.68 -2 3.36 -2 2 C-1.34 2 -0.68 2 0 2 C0 1.34 0 0.68 0 0 Z " fill="#E4B50B" transform="translate(412,203)"/>
<path d="M0 0 C0.99 0.33 1.98 0.66 3 1 C3.33 5.29 3.66 9.58 4 14 C2.68 14 1.36 14 0 14 C0 9.38 0 4.76 0 0 Z " fill="#1C181A" transform="translate(74,290)"/>
<path d="M0 0 C1.65 1.65 3.3 3.3 5 5 C3.75 6.5 3.75 6.5 2 8 C0.68 8 -0.64 8 -2 8 C-2.33 7.34 -2.66 6.68 -3 6 C-4.32 6 -5.64 6 -7 6 C-7.33 5.34 -7.66 4.68 -8 4 C-6.02 3.67 -4.04 3.34 -2 3 C-2 2.34 -2 1.68 -2 1 C-1.34 0.67 -0.68 0.34 0 0 Z " fill="#F4B41A" transform="translate(434,235)"/>
<path d="M0 0 C0 0.99 0 1.98 0 3 C1.43750191 4.68798827 1.43750191 4.68798827 3 6 C1.68 6.33 0.36 6.66 -1 7 C-1.33 8.32 -1.66 9.64 -2 11 C-3.32 10.67 -4.64 10.34 -6 10 C-6.375 7.25 -6.375 7.25 -6 4 C-3 1.625 -3 1.625 0 0 Z " fill="#F6B517" transform="translate(383,217)"/>
<path d="M0 0 C1.65 0 3.3 0 5 0 C4.67 4.62 4.34 9.24 4 14 C3.01 14 2.02 14 1 14 C0.67 9.38 0.34 4.76 0 0 Z " fill="#1B1717" transform="translate(343,290)"/>
<path d="M0 0 C1.32 0 2.64 0 4 0 C4 4.62 4 9.24 4 14 C3.01 14 2.02 14 1 14 C0.67 9.38 0.34 4.76 0 0 Z " fill="#1D1B1B" transform="translate(283,290)"/>
<path d="M0 0 C2.4375 0.6875 2.4375 0.6875 5 2 C5.8125 4.625 5.8125 4.625 6 7 C4.68 6.67 3.36 6.34 2 6 C2 6.66 2 7.32 2 8 C-1 8 -4 8 -7 8 C-7 7.01 -7 6.02 -7 5 C-4.69 5 -2.38 5 0 5 C0 3.35 0 1.7 0 0 Z M3 3 C4 5 4 5 4 5 Z " fill="#977A27" transform="translate(385,259)"/>
<path d="M0 0 C2.64 0 5.28 0 8 0 C8 0.66 8 1.32 8 2 C6.02 2 4.04 2 2 2 C2 2.99 2 3.98 2 5 C3.65 5 5.3 5 7 5 C7.33 5.99 7.66 6.98 8 8 C5.36 7.67 2.72 7.34 0 7 C0 4.69 0 2.38 0 0 Z " fill="#1F1C1D" transform="translate(217,291)"/>
<path d="M0 0 C0.99 0.33 1.98 0.66 3 1 C3 1.99 3 2.98 3 4 C3.66 4.33 4.32 4.66 5 5 C5 6.65 5 8.3 5 10 C5.99 10.33 6.98 10.66 8 11 C5.23735711 11.59732819 2.83967231 12 0 12 C0 10 0 10 2 8 C1.34 7.34 0.68 6.68 0 6 C0.33 5.34 0.66 4.68 1 4 C0.34 4 -0.32 4 -1 4 C-0.67 2.68 -0.34 1.36 0 0 Z " fill="#D1971A" transform="translate(382,214)"/>
<path d="M0 0 C2.97 0.495 2.97 0.495 6 1 C6.33 1.99 6.66 2.98 7 4 C5.68 4.33 4.36 4.66 3 5 C3 7.97 3 10.94 3 14 C2.34 14 1.68 14 1 14 C0.67 9.38 0.34 4.76 0 0 Z " fill="#201C1D" transform="translate(266,290)"/>
<path d="M0 0 C0 4.62 0 9.24 0 14 C-0.99 14 -1.98 14 -3 14 C-3 9.71 -3 5.42 -3 1 C-1 0 -1 0 0 0 Z " fill="#1E191A" transform="translate(124,290)"/>
<path d="M0 0 C1.65 0 3.3 0 5 0 C5.33 0.66 5.66 1.32 6 2 C5.34 2.66 4.68 3.32 4 4 C4.66 4.33 5.32 4.66 6 5 C6 5.66 6 6.32 6 7 C5.01 7.495 5.01 7.495 4 8 C4.66 8.66 5.32 9.32 6 10 C4.68 10.33 3.36 10.66 2 11 C1.67 10.01 1.34 9.02 1 8 C0.34 8 -0.32 8 -1 8 C-1.33 7.01 -1.66 6.02 -2 5 C-1.01 5 -0.02 5 1 5 C1.33 4.01 1.66 3.02 2 2 C1.34 2 0.68 2 0 2 C0 1.34 0 0.68 0 0 Z " fill="#C29F15" transform="translate(352,216)"/>
<path d="M0 0 C1.875 2.0625 1.875 2.0625 3 4 C1.68 4 0.36 4 -1 4 C-1.33 4.66 -1.66 5.32 -2 6 C-6.75 4.125 -6.75 4.125 -9 3 C-8.67 2.01 -8.34 1.02 -8 0 C-5.03475663 -1.48262169 -3.14877613 -0.83538959 0 0 Z " fill="#C47023" transform="translate(394,253)"/>
<path d="M0 0 C1.45823212 -0.0270043 2.91660675 -0.04639787 4.375 -0.0625 C5.18710937 -0.07410156 5.99921875 -0.08570313 6.8359375 -0.09765625 C9 0 9 0 11 1 C9.63016497 4.16115776 9.0109362 4.9927092 6 7 C5.01 7 4.02 7 3 7 C3.33 5.68 3.66 4.36 4 3 C4.33 3.66 4.66 4.32 5 5 C5.33 4.34 5.66 3.68 6 3 C4.35 3 2.7 3 1 3 C0.67 2.01 0.34 1.02 0 0 Z " fill="#131112" transform="translate(317,290)"/>
<path d="M0 0 C1.60725635 3.21451269 1.05748185 6.43612536 1 10 C-1.75 11.1875 -1.75 11.1875 -5 12 C-7.375 10.625 -7.375 10.625 -9 9 C-8.67 8.34 -8.34 7.68 -8 7 C-5.9375 6.375 -5.9375 6.375 -4 6 C-4 6.66 -4 7.32 -4 8 C-3.34 8.33 -2.68 8.66 -2 9 C-1.855625 7.700625 -1.71125 6.40125 -1.5625 5.0625 C-1.125 1.125 -1.125 1.125 0 0 Z " fill="#B9891A" transform="translate(418,218)"/>
<path d="M0 0 C0.80050781 0.12761719 1.60101563 0.25523437 2.42578125 0.38671875 C3.23402344 0.50660156 4.04226563 0.62648437 4.875 0.75 C5.48988281 0.85699219 6.10476563 0.96398437 6.73828125 1.07421875 C5.05078125 3.13671875 5.05078125 3.13671875 2.73828125 5.07421875 C-0.01171875 4.82421875 -0.01171875 4.82421875 -2.26171875 4.07421875 C-2.59171875 4.73421875 -2.92171875 5.39421875 -3.26171875 6.07421875 C-3.92171875 5.08421875 -4.58171875 4.09421875 -5.26171875 3.07421875 C-3.53640014 0.90221572 -2.83921072 0.09316926 0 0 Z " fill="#EEAC1E" transform="translate(363.26171875,249.92578125)"/>
<path d="M0 0 C0.66 0.33 1.32 0.66 2 1 C1.01 3.97 0.02 6.94 -1 10 C-0.01 9.67 0.98 9.34 2 9 C2 9.66 2 10.32 2 11 C0.02 11.66 -1.96 12.32 -4 13 C-4.66 12.01 -5.32 11.02 -6 10 C-5.34 9.67 -4.68 9.34 -4 9 C-4.33 8.34 -4.66 7.68 -5 7 C-4.01 7 -3.02 7 -2 7 C-2.33 6.01 -2.66 5.02 -3 4 C-2.67 3.34 -2.34 2.68 -2 2 C-1.34 2 -0.68 2 0 2 C0 1.34 0 0.68 0 0 Z " fill="#E59D20" transform="translate(412,233)"/>
<path d="M0 0 C0.33 0 0.66 0 1 0 C1.33 2.31 1.66 4.62 2 7 C2.99 7.33 3.98 7.66 5 8 C4.67 9.98 4.34 11.96 4 14 C2.68 14 1.36 14 0 14 C0 9.38 0 4.76 0 0 Z " fill="#100E0E" transform="translate(194,290)"/>
<path d="M0 0 C0.33 0 0.66 0 1 0 C1.33 2.31 1.66 4.62 2 7 C2.99 7.33 3.98 7.66 5 8 C4.67 9.98 4.34 11.96 4 14 C2.68 14 1.36 14 0 14 C0 9.38 0 4.76 0 0 Z " fill="#110F10" transform="translate(106,290)"/>
<path d="M0 0 C1.65 0 3.3 0 5 0 C5 0.66 5 1.32 5 2 C4.01 2 3.02 2 2 2 C2.103125 3.27875 2.20625 4.5575 2.3125 5.875 C2.37050781 6.59429687 2.42851562 7.31359375 2.48828125 8.0546875 C2.87393036 10.39519216 2.87393036 10.39519216 6 12 C4.02 12 2.04 12 0 12 C0 8.04 0 4.08 0 0 Z " fill="#262223" transform="translate(129,291)"/>
<path d="M0 0 C0.99 0 1.98 0 3 0 C3 0.99 3 1.98 3 3 C4.98 3 6.96 3 9 3 C8.67 3.99 8.34 4.98 8 6 C4.7 6 1.4 6 -2 6 C-2 4.68 -2 3.36 -2 2 C-1.34 2 -0.68 2 0 2 C0 1.34 0 0.68 0 0 Z " fill="#B08A1D" transform="translate(361,254)"/>
<path d="M0 0 C2.97 0.495 2.97 0.495 6 1 C6.33 3.31 6.66 5.62 7 8 C6.34 8 5.68 8 5 8 C4.67 8.66 4.34 9.32 4 10 C3.32845067 8.71086513 2.66291141 7.41859796 2 6.125 C1.62875 5.40570313 1.2575 4.68640625 0.875 3.9453125 C0 2 0 2 0 0 Z " fill="#A7851C" transform="translate(390,267)"/>
<path d="M0 0 C0.33 0.99 0.66 1.98 1 3 C2.65 2.67 4.3 2.34 6 2 C6.33 3.65 6.66 5.3 7 7 C5 6.33333333 3 5.66666667 1 5 C0.67 5.99 0.34 6.98 0 8 C-0.66 8 -1.32 8 -2 8 C-2.33 6.68 -2.66 5.36 -3 4 C-2.34 3.67 -1.68 3.34 -1 3 C-0.67 2.01 -0.34 1.02 0 0 Z " fill="#F9B813" transform="translate(409,220)"/>
<path d="M0 0 C2.66666667 1.33333333 5.33333333 2.66666667 8 4 C7.67 4.66 7.34 5.32 7 6 C6.01 6 5.02 6 4 6 C3.67 6.99 3.34 7.98 3 9 C2.34 7.68 1.68 6.36 1 5 C0.34 5 -0.32 5 -1 5 C-0.67 3.35 -0.34 1.7 0 0 Z " fill="#998714" transform="translate(349,207)"/>
<path d="M0 0 C0.66 0 1.32 0 2 0 C2.75 2.25 2.75 2.25 3 5 C0.71576111 8.04565185 -1.22199132 9.46028447 -5 10 C-3.99088542 8.27473958 -2.98177083 6.54947917 -1.97265625 4.82421875 C-0.86098753 2.86180445 -0.86098753 2.86180445 0 0 Z " fill="#897C0F" transform="translate(407,184)"/>
<path d="M0 0 C1.32 0.33 2.64 0.66 4 1 C3.625 3.9375 3.625 3.9375 3 7 C2.01 7.495 2.01 7.495 1 8 C0.01 7.34 -0.98 6.68 -2 6 C-1.34 4.02 -0.68 2.04 0 0 Z " fill="#C1921E" transform="translate(412,267)"/>
<path d="M0 0 C1.65 0.33 3.3 0.66 5 1 C5.33 2.65 5.66 4.3 6 6 C4.68 6.33 3.36 6.66 2 7 C2 7.66 2 8.32 2 9 C1.01 9.33 0.02 9.66 -1 10 C-0.39816251 7.97954558 0.27306096 5.97888961 1 4 C1.66 3.67 2.32 3.34 3 3 C2.01 2.67 1.02 2.34 0 2 C0 1.34 0 0.68 0 0 Z " fill="#D09A14" transform="translate(420,227)"/>
<path d="M0 0 C0 1.98 0 3.96 0 6 C-0.99 6 -1.98 6 -3 6 C-5.00309329 6.31421071 -7.00371336 6.6451046 -9 7 C-9 6.34 -9 5.68 -9 5 C-8.34 5 -7.68 5 -7 5 C-6.67 4.01 -6.34 3.02 -6 2 C-3.85412616 0.684787 -2.52986895 0 0 0 Z " fill="#A4890F" transform="translate(402,194)"/>
<path d="M0 0 C-1 3 -1 3 -3 5 C-3.33 5.66 -3.66 6.32 -4 7 C-4.66 7 -5.32 7 -6 7 C-6 6.34 -6 5.68 -6 5 C-6.66 4.67 -7.32 4.34 -8 4 C-7 1 -7 1 -4.5625 -0.25 C-2 -1 -2 -1 0 0 Z " fill="#9A8821" transform="translate(448,226)"/>
<path d="M0 0 C0.33 0.66 0.66 1.32 1 2 C3.31 2 5.62 2 8 2 C7.67 2.99 7.34 3.98 7 5 C6.34 5 5.68 5 5 5 C5 5.66 5 6.32 5 7 C2.5625 6.25 2.5625 6.25 0 5 C-0.875 2.9375 -0.875 2.9375 -1 1 C-0.67 0.67 -0.34 0.34 0 0 Z " fill="#D3A415" transform="translate(358,211)"/>
<path d="M0 0 C0.99 0.66 1.98 1.32 3 2 C3 2.66 3 3.32 3 4 C3.99 4.33 4.98 4.66 6 5 C5.67 5.66 5.34 6.32 5 7 C2.9375 7.625 2.9375 7.625 1 8 C1 8.66 1 9.32 1 10 C0.01 10.33 -0.98 10.66 -2 11 C-2.33 10.01 -2.66 9.02 -3 8 C-1.35 7.67 0.3 7.34 2 7 C2 6.01 2 5.02 2 4 C1.34 4 0.68 4 0 4 C0 2.68 0 1.36 0 0 Z " fill="#B3930F" transform="translate(409,193)"/>
<path d="M0 0 C1.4540625 0.0309375 1.4540625 0.0309375 2.9375 0.0625 C2.6075 1.0525 2.2775 2.0425 1.9375 3.0625 C1.2775 3.0625 0.6175 3.0625 -0.0625 3.0625 C0.2675 4.7125 0.5975 6.3625 0.9375 8.0625 C0.2775 8.0625 -0.3825 8.0625 -1.0625 8.0625 C-1.165625 7.423125 -1.26875 6.78375 -1.375 6.125 C-1.601875 5.444375 -1.82875 4.76375 -2.0625 4.0625 C-3.0525 3.7325 -4.0425 3.4025 -5.0625 3.0625 C-3.56765464 0.07280928 -3.56765464 0.07280928 0 0 Z " fill="#C49E17" transform="translate(440.0625,233.9375)"/>
<path d="M0 0 C2.33333333 2.33333333 4.66666667 4.66666667 7 7 C4.3333581 8.33332095 2.83319697 7.67102033 0 7 C0.33 6.34 0.66 5.68 1 5 C-0.32 4.67 -1.64 4.34 -3 4 C-3 3.01 -3 2.02 -3 1 C-2.01 0.67 -1.02 0.34 0 0 Z " fill="#EEAE1B" transform="translate(356,212)"/>
<path d="M0 0 C0.99 0.33 1.98 0.66 3 1 C4.1875 4.0625 4.1875 4.0625 5 7 C3.35 7 1.7 7 0 7 C-0.66 5.68 -1.32 4.36 -2 3 C-1.34 2.01 -0.68 1.02 0 0 Z " fill="#171415" transform="translate(324,297)"/>
<path d="M0 0 C0.99 0 1.98 0 3 0 C3.33 0.66 3.66 1.32 4 2 C4.99 1.67 5.98 1.34 7 1 C6.67 2.98 6.34 4.96 6 7 C3.53199953 5.84826645 1.95216435 4.95216435 0 3 C0 2.01 0 1.02 0 0 Z " fill="#E89F20" transform="translate(390,226)"/>
<path d="M0 0 C2.0625 0.4375 2.0625 0.4375 4 1 C3.01 1.495 3.01 1.495 2 2 C2.0825 2.7425 2.165 3.485 2.25 4.25 C1.92894816 7.78157027 0.64734383 8.76630364 -2 11 C-1.85957123 9.35369672 -1.71250671 7.70795821 -1.5625 6.0625 C-1.48128906 5.14597656 -1.40007812 4.22945313 -1.31640625 3.28515625 C-1 1 -1 1 0 0 Z " fill="#DD9223" transform="translate(380,253)"/>
<path d="M0 0 C2.57112831 1.76765071 3.07659703 3.45089059 4 6.375 C2.35 6.375 0.7 6.375 -1 6.375 C-1.33 5.055 -1.66 3.735 -2 2.375 C-2.66 2.375 -3.32 2.375 -4 2.375 C-4 1.715 -4 1.055 -4 0.375 C-2 -0.625 -2 -0.625 0 0 Z " fill="#ECA41E" transform="translate(369,229.625)"/>
<path d="M0 0 C0.33 0.66 0.66 1.32 1 2 C1.66 2.165 2.32 2.33 3 2.5 C3.66 2.665 4.32 2.83 5 3 C5.33 3.66 5.66 4.32 6 5 C3.75 5.6875 3.75 5.6875 1 6 C-1.1875 4.625 -1.1875 4.625 -3 3 C-3.66 2.67 -4.32 2.34 -5 2 C-3.35 1.34 -1.7 0.68 0 0 Z " fill="#987B19" transform="translate(353,229)"/>
<path d="M0 0 C2.0625 0.4375 2.0625 0.4375 4 1 C3.01 1 2.02 1 1 1 C1 2.32 1 3.64 1 5 C1.66 5.33 2.32 5.66 3 6 C2.34 6 1.68 6 1 6 C1 7.65 1 9.3 1 11 C0.34 11 -0.32 11 -1 11 C-1.02688151 9.35425434 -1.04634123 7.70838587 -1.0625 6.0625 C-1.07410156 5.14597656 -1.08570313 4.22945313 -1.09765625 3.28515625 C-1 1 -1 1 0 0 Z " fill="#262122" transform="translate(319,292)"/>
<path d="M0 0 C0 3.38023517 -0.87455622 5.83468937 -2 9 C-3.32 8.34 -4.64 7.68 -6 7 C-5.25 4.0625 -5.25 4.0625 -4 1 C-1.875 0.125 -1.875 0.125 0 0 Z " fill="#695E20" transform="translate(387,266)"/>
<path d="M0 0 C1.67542976 0.28604898 3.34385343 0.61781233 5 1 C5 1.66 5 2.32 5 3 C5.99 3 6.98 3 8 3 C8 3.66 8 4.32 8 5 C7.34 5 6.68 5 6 5 C5.34 5.66 4.68 6.32 4 7 C3.34 6.01 2.68 5.02 2 4 C1.01 4.495 1.01 4.495 0 5 C-0.5625 3.0625 -0.5625 3.0625 -1 1 C-0.67 0.67 -0.34 0.34 0 0 Z " fill="#DB9123" transform="translate(414,262)"/>
<path d="M0 0 C2.99332739 0.9977758 3.94766315 1.7522025 6 4 C4.25 5.125 4.25 5.125 2 6 C-0.25 5.125 -0.25 5.125 -2 4 C-1.34 2.68 -0.68 1.36 0 0 Z " fill="#F7C30F" transform="translate(356,226)"/>
<path d="M0 0 C0 1.65 0 3.3 0 5 C-3 6 -6 7 -9 8 C-9 7.01 -9 6.02 -9 5 C-7.35 4.67 -5.7 4.34 -4 4 C-4 3.34 -4 2.68 -4 2 C-1 0 -1 0 0 0 Z " fill="#FDCB0E" transform="translate(414,199)"/>
<path d="M0 0 C0.33 1.65 0.66 3.3 1 5 C-0.65 5 -2.3 5 -4 5 C-4.66 3.68 -5.32 2.36 -6 1 C-4 0 -4 0 0 0 Z " fill="#151214" transform="translate(239,299)"/>
<path d="M0 0 C-0.33 0.99 -0.66 1.98 -1 3 C-1.99 3.33 -2.98 3.66 -4 4 C-4.33 5.65 -4.66 7.3 -5 9 C-5.33 9 -5.66 9 -6 9 C-6 6.03 -6 3.06 -6 0 C-3.50907189 -1.24546405 -2.58919267 -0.7767578 0 0 Z " fill="#121012" transform="translate(275,295)"/>
<path d="M0 0 C1.11375 0.556875 1.11375 0.556875 2.25 1.125 C2.25 2.115 2.25 3.105 2.25 4.125 C-3.28846154 4.49423077 -3.28846154 4.49423077 -5.625 2.625 C-5.99625 2.13 -6.3675 1.635 -6.75 1.125 C-4.02098495 -0.69434337 -3.21400584 -1.02263822 0 0 Z " fill="#72691A" transform="translate(436.75,270.875)"/>
<path d="M0 0 C4.455 1.98 4.455 1.98 9 4 C9 4.33 9 4.66 9 5 C5.7 5 2.4 5 -1 5 C-0.67 3.35 -0.34 1.7 0 0 Z " fill="#F3BB1F" transform="translate(419,266)"/>
<path d="M0 0 C2.475 0.99 2.475 0.99 5 2 C4.67 3.65 4.34 5.3 4 7 C1.525 6.01 1.525 6.01 -1 5 C-0.67 3.35 -0.34 1.7 0 0 Z " fill="#121011" transform="translate(67,290)"/>
<path d="M0 0 C1.65 0.33 3.3 0.66 5 1 C5 2.98 5 4.96 5 7 C3.02 6.34 1.04 5.68 -1 5 C-0.67 3.35 -0.34 1.7 0 0 Z " fill="#151214" transform="translate(112,291)"/>
<path d="M0 0 C2.475 0.99 2.475 0.99 5 2 C4 5 4 5 1.9375 6.1875 C1.298125 6.455625 0.65875 6.72375 0 7 C0 4.69 0 2.38 0 0 Z " fill="#C79E0E" transform="translate(432,227)"/>
<path d="M0 0 C1.98 0 3.96 0 6 0 C6 0.66 6 1.32 6 2 C4.68 2 3.36 2 2 2 C1.67 3.98 1.34 5.96 1 8 C0.67 8 0.34 8 0 8 C0 5.36 0 2.72 0 0 Z " fill="#272224" transform="translate(195,291)"/>
<path d="M0 0 C-0.99 1.98 -1.98 3.96 -3 6 C-3.66 6 -4.32 6 -5 6 C-5.66 4.02 -6.32 2.04 -7 0 C-3.86650268 -1.04449911 -3.01031744 -0.93423645 0 0 Z " fill="#AD8816" transform="translate(432,226)"/>
<path d="M0 0 C0 2.66666667 0 5.33333333 0 8 C-0.66 8 -1.32 8 -2 8 C-2 7.01 -2 6.02 -2 5 C-2.99 5 -3.98 5 -5 5 C-4 2 -4 2 -1.9375 0.8125 C-1.298125 0.544375 -0.65875 0.27625 0 0 Z " fill="#F1AC1B" transform="translate(412,215)"/>
<path d="M0 0 C1.65 0 3.3 0 5 0 C5.33 0.66 5.66 1.32 6 2 C4.68 2 3.36 2 2 2 C1.67 3.98 1.34 5.96 1 8 C0.67 8 0.34 8 0 8 C0 5.36 0 2.72 0 0 Z " fill="#272324" transform="translate(107,291)"/>
<path d="M0 0 C2.04119788 1.61594832 4.04072937 3.2856382 6 5 C6 5.66 6 6.32 6 7 C3.08482708 5.92598892 1.22189824 5.22189824 -1 3 C-0.67 2.01 -0.34 1.02 0 0 Z " fill="#EFAB1C" transform="translate(405,264)"/>
<path d="M0 0 C0.99 0 1.98 0 3 0 C3.625 2.8125 3.625 2.8125 4 6 C3.01 7.485 3.01 7.485 2 9 C1.34 8.67 0.68 8.34 0 8 C0 5.36 0 2.72 0 0 Z " fill="#D28524" transform="translate(389,245)"/>
<path d="M0 0 C0.66 0.33 1.32 0.66 2 1 C1.67 3.31 1.34 5.62 1 8 C0.01 7.67 -0.98 7.34 -2 7 C-1.34 4.69 -0.68 2.38 0 0 Z " fill="#F8BD13" transform="translate(430,227)"/>
<path d="M0 0 C0.33 2.31 0.66 4.62 1 7 C0.34 7 -0.32 7 -1 7 C-1.66 6.34 -2.32 5.68 -3 5 C-3.66 4.67 -4.32 4.34 -5 4 C-1.125 0 -1.125 0 0 0 Z " fill="#B79214" transform="translate(360,241)"/>
<path d="M0 0 C0.99 0.495 0.99 0.495 2 1 C2 1.66 2 2.32 2 3 C2.66 3 3.32 3 4 3 C4.33 2.34 4.66 1.68 5 1 C5.66 2.32 6.32 3.64 7 5 C4.625 5.125 4.625 5.125 2 5 C1.34 4.34 0.68 3.68 0 3 C0 2.01 0 1.02 0 0 Z " fill="#DDA31B" transform="translate(430,240)"/>
<path d="M0 0 C-3.06117568 2.62386487 -3.73173127 3 -8 3 C-8 2.01 -8 1.02 -8 0 C-5.13822943 -1.43088528 -3.06624227 -0.59991697 0 0 Z " fill="#F7BA16" transform="translate(423,229)"/>
<path d="M0 0 C0.33 1.32 0.66 2.64 1 4 C1.66 4 2.32 4 3 4 C3 4.99 3 5.98 3 7 C2.01 7.33 1.02 7.66 0 8 C-1.125 2.25 -1.125 2.25 0 0 Z " fill="#FCC80B" transform="translate(408,193)"/>
<path d="M0 0 C2.475 0.99 2.475 0.99 5 2 C5 2.99 5 3.98 5 5 C3.68 5 2.36 5 1 5 C0.34 3.68 -0.32 2.36 -1 1 C-0.67 0.67 -0.34 0.34 0 0 Z " fill="#998312" transform="translate(367,211)"/>
<path d="M0 0 C0.99 0.33 1.98 0.66 3 1 C3.33 2.65 3.66 4.3 4 6 C3.01 5.67 2.02 5.34 1 5 C0.67 4.01 0.34 3.02 0 2 C-0.66 1.67 -1.32 1.34 -2 1 C-1.34 0.67 -0.68 0.34 0 0 Z " fill="#FCC111" transform="translate(389,204)"/>
</svg>
